<svg xmlns="http://www.w3.org/2000/svg" width="169.092" height="160" viewBox="0 0 169.092 160"><defs><style>.a{fill:#f5f5f5;}.b{opacity:0.8;}.c{fill:#e8505b;}.d,.f,.h,.i,.j{fill:#fff;}.d{opacity:0.6;}.e,.h{opacity:0.2;}.g,.i,.k{opacity:0.3;}.j{opacity:0.7;}</style></defs><g transform="translate(-37.415 -54.61)"><g transform="translate(68.862 71.527)"><path class="a" d="M146.079,110.564a15.3,15.3,0,0,0-14.986-13.319l-4.547.811a14.768,14.768,0,1,0,19.533,12.508Z" transform="translate(-116.665 -97.243)"/><g class="b"><path class="a" d="M146.079,110.564a15.3,15.3,0,0,0-14.986-13.319l-4.547.811a14.768,14.768,0,1,0,19.533,12.508Z" transform="translate(-116.665 -97.243)"/></g></g><g transform="translate(73.653 86.376)"><ellipse class="c" cx="4.312" cy="4.461" rx="4.312" ry="4.461"/><ellipse class="d" cx="4.312" cy="4.461" rx="4.312" ry="4.461"/></g><g transform="translate(37.415 57.403)"><path class="a" d="M170.631,443.691" transform="translate(-117.771 -292.096)"/><path class="a" d="M188.278,73.964c-9.369-9.132-21.032-11.136-34.072-12.212s-30.511,6.321-38.4,19.119c-4.568,7.408-7.369,17.465-13.336,23.8-8.515,9.043-18.006,11.31-31.533,12.275-18.145,1.294-27.392,10-32.015,27.29-4.962,18.556,2.3,39.848,22.59,54.961a75.392,75.392,0,0,0,50.67,14.463c29.282-2.181,83.037-15.651,93.3-85.409C209.4,101.574,201.786,87.131,188.278,73.964Z" transform="translate(-37.415 -61.648)"/><g class="b"><path class="a" d="M170.631,443.691" transform="translate(-117.771 -292.096)"/><path class="a" d="M188.278,73.964c-9.369-9.132-21.032-11.136-34.072-12.212s-30.511,6.321-38.4,19.119c-4.568,7.408-7.369,17.465-13.336,23.8-8.515,9.043-18.006,11.31-31.533,12.275-18.145,1.294-27.392,10-32.015,27.29-4.962,18.556,2.3,39.848,22.59,54.961a75.392,75.392,0,0,0,50.67,14.463c29.282-2.181,83.037-15.651,93.3-85.409C209.4,101.574,201.786,87.131,188.278,73.964Z" transform="translate(-37.415 -61.648)"/></g></g><g transform="translate(148.407 159.886)"><ellipse class="c" cx="7.315" cy="7.568" rx="7.315" ry="7.568"/><ellipse class="d" cx="7.315" cy="7.568" rx="7.315" ry="7.568"/></g><g transform="translate(121.475 87.502)"><ellipse class="c" cx="7.315" cy="7.568" rx="7.315" ry="7.568" transform="translate(0 0)"/><ellipse class="d" cx="7.315" cy="7.568" rx="7.315" ry="7.568" transform="translate(0 0)"/></g><g transform="translate(186.24 116.198)"><ellipse class="c" cx="3.658" cy="3.784" rx="3.658" ry="3.784"/><ellipse class="d" cx="3.658" cy="3.784" rx="3.658" ry="3.784"/></g><g transform="translate(50.082 164.24)"><ellipse class="c" cx="7.315" cy="7.568" rx="7.315" ry="7.568" transform="translate(0)"/><ellipse class="d" cx="7.315" cy="7.568" rx="7.315" ry="7.568" transform="translate(0)"/></g><g transform="translate(145.648 190.106)"><path class="c" d="M313.21,397.648a1.517,1.517,0,1,1-1.516-1.569A1.543,1.543,0,0,1,313.21,397.648Z" transform="translate(-310.178 -396.079)"/><path class="d" d="M313.21,397.648a1.517,1.517,0,1,1-1.516-1.569A1.543,1.543,0,0,1,313.21,397.648Z" transform="translate(-310.178 -396.079)"/></g><g transform="translate(178.084 155.829)"><path class="c" d="M394.955,311.266a1.517,1.517,0,1,1-1.516-1.569A1.543,1.543,0,0,1,394.955,311.266Z" transform="translate(-391.923 -309.697)"/><path class="d" d="M394.955,311.266a1.517,1.517,0,1,1-1.516-1.569A1.543,1.543,0,0,1,394.955,311.266Z" transform="translate(-391.923 -309.697)"/></g><g transform="translate(186.723 101.802)"><path class="c" d="M416.725,175.109a1.517,1.517,0,1,1-1.516-1.569A1.543,1.543,0,0,1,416.725,175.109Z" transform="translate(-413.693 -173.54)"/><path class="d" d="M416.725,175.109a1.517,1.517,0,1,1-1.516-1.569A1.543,1.543,0,0,1,416.725,175.109Z" transform="translate(-413.693 -173.54)"/></g><g transform="translate(127.274 73.749)"><path class="c" d="M266.906,104.412a1.517,1.517,0,1,1-1.516-1.569A1.543,1.543,0,0,1,266.906,104.412Z" transform="translate(-263.874 -102.843)"/><path class="d" d="M266.906,104.412a1.517,1.517,0,1,1-1.516-1.569A1.543,1.543,0,0,1,266.906,104.412Z" transform="translate(-263.874 -102.843)"/></g><g transform="translate(83.908 75.093)"><ellipse class="c" cx="1.516" cy="1.568" rx="1.516" ry="1.568" transform="translate(0 0)"/><ellipse class="d" cx="1.516" cy="1.568" rx="1.516" ry="1.568" transform="translate(0 0)"/></g><g transform="translate(155.589 185.789)"><circle class="c" cx="2.079" cy="2.079" r="2.079" transform="translate(0.918 0.687)"/><g class="e" transform="translate(2.62 0.894)"><path class="f" d="M343.572,390.1c-.095-.051-.074-.261-.1-.545,0-.035-.009-.073-.012-.11s-.012-.077-.018-.116a2.18,2.18,0,0,0-.06-.246,1.59,1.59,0,0,0-.636-.875,2.257,2.257,0,0,0-.216-.133c-.036-.017-.071-.037-.105-.053s-.068-.033-.1-.046c-.262-.114-.468-.159-.487-.265a.1.1,0,0,1,.026-.079.335.335,0,0,1,.106-.082.973.973,0,0,1,.444-.1,1.443,1.443,0,0,1,.152.007c.053,0,.108.015.164.025a1.7,1.7,0,0,1,.7.336,1.669,1.669,0,0,1,.528.726,1.707,1.707,0,0,1,.1.772c-.008.057-.015.112-.027.164a1.333,1.333,0,0,1-.04.147.978.978,0,0,1-.228.393.331.331,0,0,1-.111.075A.1.1,0,0,1,343.572,390.1Z" transform="translate(-341.834 -387.455)"/></g><g transform="translate(0 0)"><g transform="translate(1.4)"><path class="c" d="M339.186,385.219c.024.038-.052.128-.169.2a.672.672,0,0,1-.114.058c-.069.027-.125.031-.14.005s.052-.127.169-.2S339.162,385.181,339.186,385.219Z" transform="translate(-338.758 -385.202)"/><path class="c" d="M339.407,386.492a3.64,3.64,0,0,0-.267-.814l.212-.128a3.041,3.041,0,0,0,.568.673A3.925,3.925,0,0,0,339.407,386.492Z" transform="translate(-338.989 -385.412)"/><path class="g" d="M339.148,385.683a.793.793,0,0,0,.208-.133c.025.038.054.081.085.125a.814.814,0,0,1-.267.056Z" transform="translate(-338.993 -385.412)"/></g><g transform="translate(0.563 1.225)"><path class="c" d="M336.9,388.292c.04.021.02.137-.044.258a.685.685,0,0,1-.069.107c-.046.058-.092.089-.118.076s-.02-.137.044-.258S336.861,388.272,336.9,388.292Z" transform="translate(-336.648 -388.289)"/><path class="c" d="M337.446,389.2a2.029,2.029,0,0,0-.444-.341l.117-.217a1.341,1.341,0,0,0,.546.174A2.8,2.8,0,0,0,337.446,389.2Z" transform="translate(-336.862 -388.503)"/><path class="g" d="M337.015,388.864a.547.547,0,0,0,.112-.22c.04.022.085.044.133.066a.786.786,0,0,1-.2.18Z" transform="translate(-336.87 -388.503)"/></g><g transform="translate(0 2.391)"><path class="c" d="M335.3,391.316c.044,0,.084.109.088.246a.636.636,0,0,1-.008.128c-.012.073-.036.123-.066.124s-.084-.109-.088-.247S335.259,391.317,335.3,391.316Z" transform="translate(-335.23 -391.281)"/><path class="c" d="M336.44,391.8a3.636,3.636,0,0,0-.837-.179l0-.247a3.04,3.04,0,0,0,.867-.152A3.911,3.911,0,0,0,336.44,391.8Z" transform="translate(-335.452 -391.227)"/><path class="g" d="M335.608,391.841a.8.8,0,0,0-.01-.247l.15-.01a.816.816,0,0,1-.086.259Z" transform="translate(-335.452 -391.442)"/></g><g transform="translate(0.563 3.573)"><path class="c" d="M336.666,395.005c.038-.024.128.052.2.168a.672.672,0,0,1,.058.114c.027.069.031.124.006.14s-.128-.052-.2-.168S336.628,395.029,336.666,395.005Z" transform="translate(-336.649 -394.686)"/><path class="c" d="M337.644,394.589a2.031,2.031,0,0,0-.518.212l-.129-.211a1.343,1.343,0,0,0,.425-.384A2.819,2.819,0,0,0,337.644,394.589Z" transform="translate(-336.86 -394.207)"/><path class="g" d="M337.131,395.257a.545.545,0,0,0-.133-.208c.04-.023.081-.051.124-.082a.792.792,0,0,1,.056.263Z" transform="translate(-336.86 -394.666)"/></g></g><g transform="translate(1.715 3.838)"><g transform="translate(0 0.679)"><path class="c" d="M339.553,398.83c.011-.043.129-.051.262-.017a.673.673,0,0,1,.12.043c.067.032.108.069.1.1s-.128.05-.262.016S339.542,398.873,339.553,398.83Z" transform="translate(-339.552 -397.917)"/><path class="c" d="M340.53,396.772a3.637,3.637,0,0,0-.4.755l-.238-.064a3.056,3.056,0,0,0,.094-.876A3.89,3.89,0,0,0,340.53,396.772Z" transform="translate(-339.755 -396.587)"/><path class="g" d="M340.128,398.629a.789.789,0,0,0-.24-.059c.01-.044.021-.1.032-.147a.811.811,0,0,1,.225.154Z" transform="translate(-339.755 -397.695)"/></g><g transform="translate(1.53 0.876)"><path class="c" d="M343.631,398.612c-.008-.044.1-.1.232-.123a.67.67,0,0,1,.127-.011c.074,0,.127.018.132.047.008.044-.1.1-.232.123S343.639,398.656,343.631,398.612Z" transform="translate(-343.542 -397.925)"/><path class="c" d="M343.845,397.082a2.03,2.03,0,0,0,0,.56l-.244.039a1.34,1.34,0,0,0-.195-.539A2.79,2.79,0,0,0,343.845,397.082Z" transform="translate(-343.407 -397.082)"/><path class="g" d="M344.1,398.325a.55.55,0,0,0-.243.045c-.007-.046-.017-.094-.029-.146a.787.787,0,0,1,.264.048Z" transform="translate(-343.66 -397.771)"/></g><g transform="translate(2.641)"><path class="c" d="M348.038,396.82c-.035-.028.008-.138.095-.244a.677.677,0,0,1,.089-.092c.057-.048.108-.069.131-.05s-.008.138-.095.244S348.073,396.848,348.038,396.82Z" transform="translate(-347.305 -395.811)"/><path class="c" d="M346.606,394.875a3.643,3.643,0,0,0,.515.684l-.159.189a3.043,3.043,0,0,0-.755-.453A3.918,3.918,0,0,0,346.606,394.875Z" transform="translate(-346.208 -394.875)"/><path class="g" d="M348.082,396.533a.8.8,0,0,0-.154.193l-.12-.09a.819.819,0,0,1,.235-.139Z" transform="translate(-347.173 -395.853)"/></g></g><g transform="translate(1.64 2.608)"><path class="g" d="M339.941,392.481c0,.161-.088.291-.2.291s-.2-.13-.2-.291.088-.291.2-.291S339.941,392.32,339.941,392.481Z" transform="translate(-339.476 -392.025)"/><path class="c" d="M339.756,392.065c0,.161-.088.292-.2.292s-.2-.131-.2-.292.088-.291.2-.291S339.756,391.9,339.756,392.065Z" transform="translate(-339.364 -391.774)"/><path class="h" d="M339.756,392.065c0,.161-.088.292-.2.292s-.2-.131-.2-.292.088-.291.2-.291S339.756,391.9,339.756,392.065Z" transform="translate(-339.364 -391.774)"/></g><g transform="translate(1.759 1.19)"><path class="g" d="M340.062,388.632c.142-.075.3-.059.349.037s-.023.234-.166.31-.3.059-.349-.036S339.919,388.708,340.062,388.632Z" transform="translate(-339.794 -388.432)"/><path class="c" d="M339.844,388.247c.142-.075.3-.059.35.036s-.024.235-.166.31-.3.059-.349-.037S339.7,388.322,339.844,388.247Z" transform="translate(-339.663 -388.2)"/><path class="h" d="M339.844,388.247c.142-.075.3-.059.35.036s-.024.235-.166.31-.3.059-.349-.037S339.7,388.322,339.844,388.247Z" transform="translate(-339.663 -388.2)"/></g><g transform="translate(2.299 3.645)"><path class="g" d="M341.407,394.839a.192.192,0,1,1-.192-.192A.192.192,0,0,1,341.407,394.839Z" transform="translate(-341.024 -394.544)"/><path class="c" d="M341.407,394.58a.192.192,0,1,1-.192-.192A.191.191,0,0,1,341.407,394.58Z" transform="translate(-341.024 -394.388)"/><path class="i" d="M341.407,394.58a.192.192,0,1,1-.192-.192A.191.191,0,0,1,341.407,394.58Z" transform="translate(-341.024 -394.388)"/></g><g transform="translate(3.547 1.746)"><path class="g" d="M344.578,390.232a.236.236,0,1,1-.014-.333A.236.236,0,0,1,344.578,390.232Z" transform="translate(-344.168 -389.744)"/><path class="c" d="M344.793,390a.236.236,0,1,1-.014-.333A.236.236,0,0,1,344.793,390Z" transform="translate(-344.298 -389.603)"/><path class="i" d="M344.793,390a.236.236,0,1,1-.014-.333A.236.236,0,0,1,344.793,390Z" transform="translate(-344.298 -389.603)"/></g><g transform="translate(3.378 3.913)"><path class="g" d="M344.024,395.394a.141.141,0,1,1-.141-.141A.141.141,0,0,1,344.024,395.394Z" transform="translate(-343.743 -395.178)"/><path class="c" d="M344.024,395.2a.141.141,0,1,1-.141-.141A.141.141,0,0,1,344.024,395.2Z" transform="translate(-343.743 -395.063)"/><path class="i" d="M344.024,395.2a.141.141,0,1,1-.141-.141A.141.141,0,0,1,344.024,395.2Z" transform="translate(-343.743 -395.063)"/></g><g transform="translate(2.787)"><g transform="translate(2.251 2.528)"><path class="c" d="M350.135,392.177c-.044,0-.083-.108-.087-.244a.7.7,0,0,1,.007-.126c.012-.073.036-.121.065-.122.044,0,.083.108.087.244S350.179,392.176,350.135,392.177Z" transform="translate(-349.206 -391.641)"/><path class="c" d="M347.954,391.573a3.607,3.607,0,0,0,.827.177l0,.244a3.012,3.012,0,0,0-.857.15A3.874,3.874,0,0,0,347.954,391.573Z" transform="translate(-347.928 -391.573)"/><path class="g" d="M349.852,392.017a.785.785,0,0,0,.01.244l-.148.01a.809.809,0,0,1,.085-.256Z" transform="translate(-349.005 -391.84)"/></g><g transform="translate(1.891 1.176)"><path class="c" d="M348.509,388.587c-.038.023-.127-.051-.2-.166a.694.694,0,0,1-.057-.113c-.026-.068-.03-.123-.006-.139s.126.051.2.166S348.546,388.564,348.509,388.587Z" transform="translate(-347.75 -388.166)"/><path class="c" d="M347.019,388.753a2.011,2.011,0,0,0,.512-.209l.127.208a1.323,1.323,0,0,0-.42.379A2.772,2.772,0,0,0,347.019,388.753Z" transform="translate(-347.019 -388.394)"/><path class="g" d="M348.224,388.551a.542.542,0,0,0,.132.205c-.039.023-.08.051-.123.081a.776.776,0,0,1-.055-.259Z" transform="translate(-347.717 -388.398)"/></g><g transform="translate(1.078 0.115)"><path class="c" d="M346.621,385.746c-.021.039-.135.018-.255-.047a.682.682,0,0,1-.105-.07c-.057-.047-.087-.092-.073-.118s.135-.017.255.047S346.642,385.708,346.621,385.746Z" transform="translate(-345.703 -385.492)"/><path class="c" d="M344.971,386.468a3.585,3.585,0,0,0,.569-.626l.213.119a3,3,0,0,0-.3.816A3.865,3.865,0,0,0,344.971,386.468Z" transform="translate(-344.971 -385.703)"/><path class="g" d="M346.355,385.855a.789.789,0,0,0,.215.114c-.02.04-.043.086-.065.133a.8.8,0,0,1-.178-.2Z" transform="translate(-345.789 -385.711)"/></g><path class="c" d="M342.746,385.274c0,.044-.108.084-.243.088a.663.663,0,0,1-.126-.007c-.073-.012-.122-.036-.123-.065,0-.044.108-.084.243-.088S342.744,385.23,342.746,385.274Z" transform="translate(-342.254 -385.202)"/><path class="c" d="M342.4,386.117a2.011,2.011,0,0,0,.077-.548l.244,0a1.324,1.324,0,0,0,.116.554A2.8,2.8,0,0,0,342.4,386.117Z" transform="translate(-342.34 -385.421)"/><path class="g" d="M342.589,385.576a.543.543,0,0,0,.244-.011c0,.046,0,.095.008.146a.784.784,0,0,1-.252-.083Z" transform="translate(-342.456 -385.421)"/></g><g transform="translate(3.779 3.188)"><path class="g" d="M345.148,393.8c-.075.142-.214.216-.309.166s-.112-.207-.037-.349.214-.217.31-.166S345.223,393.658,345.148,393.8Z" transform="translate(-344.754 -393.357)"/><path class="c" d="M345.359,393.6c-.075.142-.214.217-.309.166s-.112-.207-.037-.349.214-.217.31-.166S345.435,393.46,345.359,393.6Z" transform="translate(-344.882 -393.237)"/><path class="i" d="M345.359,393.6c-.075.142-.214.217-.309.166s-.112-.207-.037-.349.214-.217.31-.166S345.435,393.46,345.359,393.6Z" transform="translate(-344.882 -393.237)"/></g><g transform="translate(2.705 2.243)"><path class="g" d="M342.631,391.572a.291.291,0,1,1-.291-.291A.291.291,0,0,1,342.631,391.572Z" transform="translate(-342.048 -391.112)"/><path class="c" d="M342.631,391.146a.291.291,0,1,1-.291-.292A.291.291,0,0,1,342.631,391.146Z" transform="translate(-342.048 -390.854)"/><path class="h" d="M342.631,391.146a.291.291,0,1,1-.291-.292A.291.291,0,0,1,342.631,391.146Z" transform="translate(-342.048 -390.854)"/></g><g class="e" transform="translate(1.178 3.436)"><path d="M341.063,394.723c.013.022-.015.067-.083.127a1.2,1.2,0,0,1-.328.191,1.728,1.728,0,0,1-.252.081,1.936,1.936,0,0,1-1.853-.56,1.757,1.757,0,0,1-.165-.207,1.193,1.193,0,0,1-.167-.34c-.024-.087-.022-.14,0-.152.05-.024.161.127.369.321.052.049.111.1.175.151a2.558,2.558,0,0,0,.214.151,2.123,2.123,0,0,0,1.116.337c.092,0,.179,0,.261-.008s.159-.017.229-.029C340.859,394.74,341.036,394.675,341.063,394.723Z" transform="translate(-338.198 -393.861)"/></g><g class="e" transform="translate(0.989 2.703)"><path d="M337.9,392.015a.178.178,0,1,1-.179.186A.183.183,0,0,1,337.9,392.015Z" transform="translate(-337.723 -392.014)"/></g></g><g transform="translate(163.354 106.526)"><circle class="c" cx="5.776" cy="5.776" r="5.776"/><circle class="j" cx="5.776" cy="5.776" r="5.776"/></g><g transform="translate(72.72 115.344)"><circle class="c" cx="3.186" cy="3.186" r="3.186" transform="translate(0 6.203) rotate(-76.764)"/><circle class="j" cx="3.186" cy="3.186" r="3.186" transform="translate(0 6.203) rotate(-76.764)"/></g><g transform="translate(86.241 88.198)"><circle class="c" cx="3.186" cy="3.186" r="3.186" transform="translate(0 2.451) rotate(-22.617)"/><circle class="j" cx="3.186" cy="3.186" r="3.186" transform="translate(0 2.451) rotate(-22.617)"/></g><g transform="translate(144.526 67.964)"><circle class="c" cx="3.186" cy="3.186" r="3.186" transform="translate(0 2.451) rotate(-22.617)"/><circle class="j" cx="3.186" cy="3.186" r="3.186" transform="translate(0 2.451) rotate(-22.617)"/></g><g transform="translate(78.133 157.398)"><path class="c" d="M144.243,315.872a2.11,2.11,0,1,1-2.107-2.222A2.167,2.167,0,0,1,144.243,315.872Z" transform="translate(-140.029 -313.65)"/><path class="j" d="M144.243,315.872a2.11,2.11,0,1,1-2.107-2.222A2.167,2.167,0,0,1,144.243,315.872Z" transform="translate(-140.029 -313.65)"/></g><g transform="translate(124.948 184.761)"><ellipse class="c" cx="4.225" cy="3.983" rx="4.225" ry="3.983"/><ellipse class="d" cx="4.225" cy="3.983" rx="4.225" ry="3.983"/></g><g transform="translate(74.253 81.541)"><path class="c" d="M139.412,129.949a3.8,3.8,0,0,0,.519-1.4,5.684,5.684,0,0,1,1.559-.268l-.007-.448a6.692,6.692,0,0,1-1.526-.32,3.779,3.779,0,0,0-.31-1.13,2.536,2.536,0,0,1,.78-.7l-.233-.383a3.747,3.747,0,0,1-.955.386,3.843,3.843,0,0,0-.6-.643,5.6,5.6,0,0,1,.553-1.494l-.39-.219a6.6,6.6,0,0,1-1.044,1.149,3.787,3.787,0,0,0-1.079-.314,2.747,2.747,0,0,1-.211-1.037l-.448.009a3.687,3.687,0,0,1-.14,1,3.774,3.774,0,0,0-.967.2,5.9,5.9,0,0,1-1.019-1.221l-.388.234a6.34,6.34,0,0,1,.481,1.455,3.823,3.823,0,0,0-.9.882,2.689,2.689,0,0,1-.922-.316l-.216.4a3.7,3.7,0,0,1,.754.565,3.789,3.789,0,0,0-.3.974,6.946,6.946,0,0,1-1.475.225l.008.453a5.993,5.993,0,0,1,1.427.294,3.8,3.8,0,0,0,.317,1.22,2.705,2.705,0,0,1-.732.631l.236.387a3.726,3.726,0,0,1,.868-.368,3.834,3.834,0,0,0,1.191,1.088,6.455,6.455,0,0,1-.188,1.531l.438.118a5.845,5.845,0,0,1,.662-1.266,3.632,3.632,0,0,0,1.526.1,2.765,2.765,0,0,1,.3.9l.448-.072a3.736,3.736,0,0,1,0-1.005,3.815,3.815,0,0,0,1.361-.827,6.877,6.877,0,0,1,1.267.8l.291-.348A6.365,6.365,0,0,1,139.412,129.949ZM136,124.137h0Z" transform="translate(-130.66 -122.867)"/><g transform="translate(0 0)"><g class="e" transform="translate(4.813 1.643)"><path class="f" d="M145.575,131.481c-.174-.094-.136-.479-.186-1,0-.065-.016-.133-.022-.2s-.023-.141-.033-.214a4.185,4.185,0,0,0-.111-.452,2.92,2.92,0,0,0-1.169-1.607,4.145,4.145,0,0,0-.4-.244c-.066-.033-.13-.068-.193-.1s-.125-.062-.186-.084c-.481-.209-.86-.291-.9-.486a.183.183,0,0,1,.048-.146.6.6,0,0,1,.194-.151,1.786,1.786,0,0,1,.816-.177,2.44,2.44,0,0,1,.28.013c.1.009.2.027.3.046a3.136,3.136,0,0,1,1.291.617,3.067,3.067,0,0,1,.97,1.334,3.147,3.147,0,0,1,.189,1.418c-.014.105-.027.206-.049.3a2.491,2.491,0,0,1-.074.27,1.793,1.793,0,0,1-.419.722.6.6,0,0,1-.2.138A.184.184,0,0,1,145.575,131.481Z" transform="translate(-142.382 -126.62)"/></g><g transform="translate(0 0)"><g transform="translate(2.572)"><path class="c" d="M137.518,122.511c.044.07-.1.235-.31.368a1.222,1.222,0,0,1-.21.106c-.127.049-.229.056-.258.01-.044-.069.1-.235.31-.368S137.474,122.442,137.518,122.511Z" transform="translate(-136.733 -122.48)"/><path class="g" d="M137.449,123.365a1.457,1.457,0,0,0,.382-.244c.046.07.1.149.156.229a1.5,1.5,0,0,1-.49.1Z" transform="translate(-137.165 -122.867)"/></g><g transform="translate(1.034 2.25)"><path class="c" d="M133.319,128.157c.073.038.037.251-.081.475a1.234,1.234,0,0,1-.127.2c-.085.107-.169.164-.217.139-.073-.038-.037-.25.081-.475S133.246,128.119,133.319,128.157Z" transform="translate(-132.857 -128.151)"/><path class="g" d="M133.53,129.207a1.007,1.007,0,0,0,.206-.4c.074.041.157.082.245.122a1.452,1.452,0,0,1-.365.331Z" transform="translate(-133.263 -128.544)"/></g><g transform="translate(0 4.456)"><path class="c" d="M130.387,133.711c.082,0,.154.2.162.453a1.273,1.273,0,0,1-.014.235c-.022.135-.067.226-.121.228-.082,0-.155-.2-.162-.453S130.3,133.713,130.387,133.711Z" transform="translate(-130.251 -133.711)"/><path class="g" d="M130.947,134.677a1.459,1.459,0,0,0-.019-.453c.084-.005.179-.011.276-.019a1.5,1.5,0,0,1-.158.475Z" transform="translate(-130.66 -134.008)"/></g><g transform="translate(1.034 7.119)"><path class="c" d="M132.888,140.49c.069-.044.235.094.369.309a1.214,1.214,0,0,1,.107.209c.05.127.057.229.011.258-.07.044-.235-.094-.369-.308S132.819,140.533,132.888,140.49Z" transform="translate(-132.858 -140.458)"/><path class="g" d="M133.744,140.953a1.009,1.009,0,0,0-.245-.382c.073-.043.149-.094.228-.15a1.455,1.455,0,0,1,.1.482Z" transform="translate(-133.245 -140.421)"/></g></g><g transform="translate(3.15 8.182)"><g transform="translate(0 1.455)"><path class="c" d="M138.193,147.515c.021-.079.236-.093.481-.03a1.237,1.237,0,0,1,.221.078c.123.058.2.127.185.179-.021.08-.236.093-.481.03S138.172,147.595,138.193,147.515Z" transform="translate(-138.191 -147.176)"/><path class="g" d="M139.249,147.146a1.448,1.448,0,0,0-.44-.108c.018-.082.039-.175.058-.271a1.506,1.506,0,0,1,.413.284Z" transform="translate(-138.564 -146.767)"/></g><g transform="translate(2.973 1.31)"><path class="c" d="M145.685,147.115c-.014-.081.176-.182.425-.225a1.2,1.2,0,0,1,.234-.02c.136,0,.233.033.242.087.014.081-.176.182-.425.226S145.7,147.2,145.685,147.115Z" transform="translate(-145.684 -146.684)"/><path class="g" d="M146.54,146.588a1,1,0,0,0-.446.083c-.012-.084-.031-.174-.052-.268a1.443,1.443,0,0,1,.485.087Z" transform="translate(-145.9 -146.403)"/></g><g transform="translate(6.018)"><path class="c" d="M153.779,143.823c-.064-.052.014-.253.174-.449a1.275,1.275,0,0,1,.164-.168c.105-.087.2-.127.241-.092.063.052-.015.253-.174.448S153.843,143.875,153.779,143.823Z" transform="translate(-153.598 -143.101)"/><path class="g" d="M153.861,143.3a1.456,1.456,0,0,0-.283.355c-.067-.051-.143-.109-.221-.166a1.493,1.493,0,0,1,.431-.256Z" transform="translate(-153.357 -143.177)"/></g></g><g transform="translate(3.013 4.791)"><path class="g" d="M138.906,135.852c0,.3-.161.535-.36.535s-.36-.24-.36-.535.161-.535.36-.535S138.906,135.557,138.906,135.852Z" transform="translate(-138.05 -135.014)"/><path class="c" d="M138.565,135.088c0,.3-.161.535-.36.535s-.36-.24-.36-.535.161-.535.36-.535S138.565,134.793,138.565,135.088Z" transform="translate(-137.845 -134.553)"/><path class="h" d="M138.565,135.088c0,.3-.161.535-.36.535s-.36-.24-.36-.535.161-.535.36-.535S138.565,134.793,138.565,135.088Z" transform="translate(-137.845 -134.553)"/></g><g transform="translate(3.231 2.185)"><path class="g" d="M139.127,128.782c.261-.138.548-.108.642.067s-.043.431-.3.569-.548.108-.642-.067S138.866,128.92,139.127,128.782Z" transform="translate(-138.635 -128.414)"/><path class="c" d="M138.728,128.074c.261-.139.548-.108.642.067s-.043.431-.3.569-.548.108-.642-.067S138.467,128.212,138.728,128.074Z" transform="translate(-138.394 -127.987)"/><path class="h" d="M138.728,128.074c.261-.139.548-.108.642.067s-.043.431-.3.569-.548.108-.642-.067S138.467,128.212,138.728,128.074Z" transform="translate(-138.394 -127.987)"/></g><g transform="translate(4.223 6.696)"><path class="g" d="M141.6,140.184a.352.352,0,1,1-.352-.352A.353.353,0,0,1,141.6,140.184Z" transform="translate(-140.894 -139.643)"/><path class="c" d="M141.6,139.708a.352.352,0,1,1-.352-.352A.352.352,0,0,1,141.6,139.708Z" transform="translate(-140.894 -139.356)"/><path class="i" d="M141.6,139.708a.352.352,0,1,1-.352-.352A.352.352,0,0,1,141.6,139.708Z" transform="translate(-140.894 -139.356)"/></g><g transform="translate(6.515 3.208)"><path class="g" d="M147.423,131.721a.433.433,0,1,1-.025-.612A.433.433,0,0,1,147.423,131.721Z" transform="translate(-146.671 -130.824)"/><path class="c" d="M147.819,131.291a.433.433,0,1,1-.025-.612A.433.433,0,0,1,147.819,131.291Z" transform="translate(-146.91 -130.565)"/><path class="i" d="M147.819,131.291a.433.433,0,1,1-.025-.612A.433.433,0,0,1,147.819,131.291Z" transform="translate(-146.91 -130.565)"/></g><g transform="translate(6.205 7.188)"><circle class="g" cx="0.258" cy="0.258" r="0.258" transform="translate(0 0.138)"/><circle class="c" cx="0.258" cy="0.258" r="0.258"/><circle class="i" cx="0.258" cy="0.258" r="0.258"/></g><g transform="translate(5.12)"><g transform="translate(5.438 4.725)"><path class="c" d="M157.631,135.293c-.081,0-.153-.2-.16-.448a1.239,1.239,0,0,1,.014-.232c.022-.133.066-.223.119-.225.081,0,.153.2.16.448S157.712,135.291,157.631,135.293Z" transform="translate(-157.227 -134.389)"/><path class="g" d="M157.112,135a1.438,1.438,0,0,0,.018.448c-.083,0-.177.011-.272.019a1.472,1.472,0,0,1,.156-.47Z" transform="translate(-156.858 -134.756)"/></g><g transform="translate(4.317 2.161)"><path class="c" d="M154.644,128.7c-.069.043-.232-.094-.365-.305a1.213,1.213,0,0,1-.105-.207c-.049-.126-.056-.226-.011-.254.069-.043.232.094.365.305S154.712,128.657,154.644,128.7Z" transform="translate(-154.093 -127.926)"/><path class="g" d="M154.121,128.633a.993.993,0,0,0,.242.377c-.072.042-.148.093-.225.148a1.42,1.42,0,0,1-.1-.476Z" transform="translate(-154.034 -128.353)"/></g><g transform="translate(2.865 0.212)"><path class="c" d="M151.176,123.481c-.039.071-.248.032-.467-.087a1.234,1.234,0,0,1-.194-.129c-.1-.086-.16-.169-.134-.216.038-.071.248-.033.467.087S151.215,123.41,151.176,123.481Z" transform="translate(-150.375 -123.014)"/><path class="g" d="M150.688,123.681a1.435,1.435,0,0,0,.4.209c-.037.074-.079.159-.12.245a1.474,1.474,0,0,1-.327-.372Z" transform="translate(-150.533 -123.416)"/></g><path class="c" d="M144.058,122.613c0,.081-.2.154-.447.162a1.217,1.217,0,0,1-.232-.013c-.133-.021-.223-.065-.225-.119,0-.081.2-.154.447-.162S144.055,122.532,144.058,122.613Z" transform="translate(-143.154 -122.48)"/><path class="g" d="M143.769,123.167a.993.993,0,0,0,.448-.019c0,.083.006.174.015.269a1.434,1.434,0,0,1-.463-.152Z" transform="translate(-143.525 -122.883)"/></g><g transform="translate(6.942 5.857)"><path class="g" d="M148.47,138.276c-.139.261-.393.4-.569.3s-.206-.381-.067-.642.393-.4.569-.3S148.608,138.015,148.47,138.276Z" transform="translate(-147.747 -137.461)"/><path class="c" d="M148.859,137.911c-.138.262-.393.4-.569.3s-.206-.381-.068-.642.393-.4.569-.3S149,137.65,148.859,137.911Z" transform="translate(-147.981 -137.24)"/><path class="i" d="M148.859,137.911c-.138.262-.393.4-.569.3s-.206-.381-.068-.642.393-.4.569-.3S149,137.65,148.859,137.911Z" transform="translate(-147.981 -137.24)"/></g><g transform="translate(4.969 4.12)"><path class="g" d="M143.846,134.183a.535.535,0,1,1-.535-.535A.535.535,0,0,1,143.846,134.183Z" transform="translate(-142.775 -133.337)"/><path class="c" d="M143.846,133.4a.535.535,0,1,1-.535-.535A.535.535,0,0,1,143.846,133.4Z" transform="translate(-142.775 -132.864)"/><path class="h" d="M143.846,133.4a.535.535,0,1,1-.535-.535A.535.535,0,0,1,143.846,133.4Z" transform="translate(-142.775 -132.864)"/></g><g class="e" transform="translate(2.164 6.312)"><path d="M140.967,139.971c.023.04-.028.124-.153.233a2.207,2.207,0,0,1-.6.351,3.256,3.256,0,0,1-.463.149,3.541,3.541,0,0,1-2.989-.65,3.558,3.558,0,0,1-.415-.378,3.29,3.29,0,0,1-.3-.38,2.229,2.229,0,0,1-.308-.626c-.044-.16-.04-.258,0-.279.091-.044.3.234.677.59.095.09.2.182.321.277s.249.188.392.277a3.9,3.9,0,0,0,2.05.619c.168.006.329,0,.48-.014s.292-.031.42-.053C140.591,140,140.916,139.883,140.967,139.971Z" transform="translate(-135.704 -138.386)"/></g><g class="e" transform="translate(1.817 4.966)"><path d="M135.159,135a.327.327,0,1,1-.329.342A.336.336,0,0,1,135.159,135Z" transform="translate(-134.83 -134.996)"/></g></g></g><g transform="translate(49.317 126.579)"><path class="c" d="M87.519,258.608a9.6,9.6,0,0,0,2.442-2.882,14.462,14.462,0,0,1,3.95.707l.369-1.074a16.957,16.957,0,0,1-3.361-2.08,9.62,9.62,0,0,0,.236-2.964,6.436,6.436,0,0,1,2.464-1l-.225-1.113a9.514,9.514,0,0,1-2.61.1,9.722,9.722,0,0,0-.865-2.047c.335-.975,2.609-3.084,2.609-3.084l-.742-.859a16.729,16.729,0,0,1-3.482,1.837,9.6,9.6,0,0,0-2.3-1.68,6.971,6.971,0,0,1,.393-2.654l-1.075-.365a9.348,9.348,0,0,1-1.2,2.271,9.614,9.614,0,0,0-2.477-.362,14.958,14.958,0,0,1-1.376-3.791l-1.128.224a16.087,16.087,0,0,1-.108,3.884A9.728,9.728,0,0,0,76.117,243a6.823,6.823,0,0,1-1.925-1.549l-.859.764a9.408,9.408,0,0,1,1.31,2,9.594,9.594,0,0,0-1.561,2.062,17.568,17.568,0,0,1-3.71-.737L69,246.624a15.169,15.169,0,0,1,3.15,1.932,9.607,9.607,0,0,0-.3,3.184,6.878,6.878,0,0,1-2.291.872l.229,1.127a9.412,9.412,0,0,1,2.388-.127,9.718,9.718,0,0,0,1.9,3.624,16.357,16.357,0,0,1-1.77,3.487l.941.66a14.825,14.825,0,0,1,2.672-2.447,9.215,9.215,0,0,0,3.553,1.557,7.007,7.007,0,0,1-.07,2.4l1.13.214a9.478,9.478,0,0,1,.856-2.4,9.667,9.667,0,0,0,3.959-.8,17.425,17.425,0,0,1,2.333,3l.994-.577A16.119,16.119,0,0,1,87.519,258.608Zm-3.111-16.8-.036-.011Z" transform="translate(-68.368 -236.939)"/><g transform="translate(0)"><g class="e" transform="translate(14.045 5.902)"><path class="f" d="M106.632,264.6c-.335-.373.09-1.26.42-2.548.049-.157.076-.332.121-.5s.068-.356.106-.538a10.61,10.61,0,0,0,.126-1.173,7.413,7.413,0,0,0-1.4-4.84,10.606,10.606,0,0,0-.732-.924c-.129-.135-.251-.274-.377-.4s-.245-.254-.371-.36c-.966-.913-1.8-1.436-1.715-1.931a.466.466,0,0,1,.24-.306,1.527,1.527,0,0,1,.593-.192,4.536,4.536,0,0,1,2.1.284,6.241,6.241,0,0,1,.656.272c.225.106.447.236.679.372a7.953,7.953,0,0,1,2.546,2.585,7.776,7.776,0,0,1,1.161,4.017,7.955,7.955,0,0,1-.774,3.544c-.124.239-.242.468-.376.677a6.282,6.282,0,0,1-.41.58,4.537,4.537,0,0,1-1.623,1.359,1.525,1.525,0,0,1-.6.155A.466.466,0,0,1,106.632,264.6Z" transform="translate(-102.805 -250.857)"/></g><g transform="translate(10.1)"><path class="c" d="M95.137,236.182c.043.2-.43.477-1.057.61a3.152,3.152,0,0,1-.591.072c-.346.006-.594-.064-.623-.2-.044-.2.43-.477,1.057-.61S95.093,235.978,95.137,236.182Z" transform="translate(-92.863 -235.983)"/><path class="g" d="M94.565,237.82a3.7,3.7,0,0,0,1.123-.252c.05.206.109.442.174.679a3.793,3.793,0,0,1-1.259-.179Z" transform="translate(-93.89 -236.939)"/></g><g transform="translate(4.266 3.851)"><path class="c" d="M79.91,245.736c.14.154-.129.629-.6,1.061a3.164,3.164,0,0,1-.473.361c-.3.181-.545.246-.638.144-.14-.154.129-.629.6-1.061S79.77,245.582,79.91,245.736Z" transform="translate(-78.159 -245.688)"/><path class="g" d="M79.968,248.135a2.554,2.554,0,0,0,.84-.785c.14.162.3.33.478.5a3.671,3.671,0,0,1-1.157.475Z" transform="translate(-79.25 -246.69)"/></g><g transform="translate(0 7.964)"><path class="c" d="M68.281,256.059c.2.065.2.611,0,1.221a3.182,3.182,0,0,1-.236.547c-.168.3-.354.481-.485.438-.2-.065-.2-.611,0-1.221S68.083,255.994,68.281,256.059Z" transform="translate(-67.409 -256.053)"/><path class="g" d="M69.064,258.746a3.692,3.692,0,0,0,.347-1.1c.2.06.437.128.675.192a3.8,3.8,0,0,1-.788,1Z" transform="translate(-68.407 -257.016)"/></g><g transform="translate(0.565 15.195)"><path class="c" d="M69.03,274.279c.2-.044.479.428.614,1.055a3.164,3.164,0,0,1,.074.591c.008.346-.062.594-.2.623-.2.044-.479-.428-.614-1.055S68.827,274.323,69.03,274.279Z" transform="translate(-68.833 -274.276)"/><path class="g" d="M70.673,276.356a2.549,2.549,0,0,0-.256-1.121c.211-.04.437-.1.674-.161a3.667,3.667,0,0,1-.172,1.238Z" transform="translate(-69.789 -274.757)"/></g><g transform="translate(3.277 23.187)"><path class="c" d="M75.691,295.691c.117-.172.642-.019,1.171.343a3.156,3.156,0,0,1,.461.378c.244.246.364.474.286.587-.117.172-.642.019-1.172-.342S75.574,295.863,75.691,295.691Z" transform="translate(-75.668 -295.143)"/><path class="g" d="M78.3,295.65a3.693,3.693,0,0,0-.957-.638c.114-.179.244-.384.371-.595a3.792,3.792,0,0,1,.74,1.033Z" transform="translate(-76.675 -294.418)"/><g transform="translate(7.154 2.083)"><path class="c" d="M93.7,301.611c.036-.2.577-.281,1.209-.17a3.156,3.156,0,0,1,.575.154c.323.124.527.282.5.417-.036.205-.577.281-1.209.171S93.664,301.816,93.7,301.611Z" transform="translate(-93.698 -300.706)"/><path class="g" d="M96.355,300.538a2.555,2.555,0,0,0-1.135-.187c.043-.21.077-.44.106-.684a3.668,3.668,0,0,1,1.082.627Z" transform="translate(-94.616 -299.667)"/></g><g transform="translate(15.652 1.948)"><path class="c" d="M115.268,300.9c-.107-.179.252-.59.8-.92a3.187,3.187,0,0,1,.536-.259c.325-.118.583-.132.653-.014.107.179-.252.59-.8.919S115.375,301.081,115.268,300.9Z" transform="translate(-115.195 -299.508)"/><path class="g" d="M116.478,299.559a3.7,3.7,0,0,0-.981.6c-.115-.179-.246-.383-.384-.586a3.791,3.791,0,0,1,1.249-.238Z" transform="translate(-115.113 -299.326)"/></g></g><g transform="translate(6.866 11.524)"><path class="g" d="M86.7,268.766c-.255.7-.846,1.137-1.321.965s-.652-.882-.4-1.587.846-1.137,1.321-.965S86.955,268.061,86.7,268.766Z" transform="translate(-84.805 -266.302)"/><path class="c" d="M86.547,266.651c-.255.705-.846,1.137-1.321.965s-.652-.882-.4-1.587.846-1.137,1.321-.965S86.8,265.946,86.547,266.651Z" transform="translate(-84.713 -265.026)"/><path class="h" d="M86.547,266.651c-.255.705-.846,1.137-1.321.965s-.652-.882-.4-1.587.846-1.137,1.321-.965S86.8,265.946,86.547,266.651Z" transform="translate(-84.713 -265.026)"/></g><g transform="translate(9.711 5.702)"><path class="g" d="M93.447,252.406c.742-.1,1.4.215,1.471.715s-.474.989-1.217,1.094S92.3,254,92.23,253.5,92.7,252.511,93.447,252.406Z" transform="translate(-92.089 -251.579)"/><path class="c" d="M93.107,250.373c.742-.1,1.4.215,1.471.715s-.474.989-1.217,1.094-1.4-.215-1.472-.715S92.364,250.477,93.107,250.373Z" transform="translate(-91.884 -250.353)"/><path class="h" d="M93.107,250.373c.742-.1,1.4.215,1.471.715s-.474.989-1.217,1.094-1.4-.215-1.472-.715S92.364,250.477,93.107,250.373Z" transform="translate(-91.884 -250.353)"/></g><g transform="translate(8.164 17.09)"><path class="g" d="M89.718,281.385a.894.894,0,1,1-.536-1.144A.894.894,0,0,1,89.718,281.385Z" transform="translate(-87.984 -279.737)"/><path class="c" d="M90.128,280.251a.894.894,0,1,1-.536-1.144A.894.894,0,0,1,90.128,280.251Z" transform="translate(-88.231 -279.053)"/><path class="i" d="M90.128,280.251a.894.894,0,1,1-.536-1.144A.894.894,0,0,1,90.128,280.251Z" transform="translate(-88.231 -279.053)"/></g><g transform="translate(16.575 10.944)"><path class="g" d="M110.785,266.322a1.1,1.1,0,1,1,.469-1.482A1.1,1.1,0,0,1,110.785,266.322Z" transform="translate(-109.18 -263.977)"/><path class="c" d="M112.1,265.639a1.1,1.1,0,1,1,.469-1.482A1.1,1.1,0,0,1,112.1,265.639Z" transform="translate(-109.974 -263.565)"/><path class="i" d="M112.1,265.639a1.1,1.1,0,1,1,.469-1.482A1.1,1.1,0,0,1,112.1,265.639Z" transform="translate(-109.974 -263.565)"/></g><g transform="translate(12.605 19.907)"><path class="g" d="M100.446,287.863a.655.655,0,1,1-.393-.839A.655.655,0,0,1,100.446,287.863Z" transform="translate(-99.175 -286.654)"/><path class="c" d="M100.747,287.031a.655.655,0,1,1-.393-.839A.655.655,0,0,1,100.747,287.031Z" transform="translate(-99.356 -286.153)"/><path class="i" d="M100.747,287.031a.655.655,0,1,1-.393-.839A.655.655,0,0,1,100.747,287.031Z" transform="translate(-99.356 -286.153)"/></g><g transform="translate(16.457 1.888)"><g transform="translate(8.419 16.04)"><path class="c" d="M131.887,283.349c-.2-.064-.193-.6,0-1.205a3.149,3.149,0,0,1,.233-.54c.167-.3.35-.475.479-.433.2.064.193.6,0,1.206S132.082,283.414,131.887,283.349Z" transform="translate(-131.091 -281.164)"/><path class="g" d="M131.11,282.241a3.646,3.646,0,0,0-.343,1.083c-.2-.06-.432-.127-.666-.189a3.741,3.741,0,0,1,.778-.985Z" transform="translate(-130.101 -281.758)"/></g><g transform="translate(8.127 8.714)"><path class="c" d="M131.082,264.948c-.2.043-.473-.423-.606-1.042a3.142,3.142,0,0,1-.073-.584c-.008-.342.061-.587.194-.615.2-.044.473.423.606,1.042S131.284,264.9,131.082,264.948Z" transform="translate(-129.991 -262.703)"/><path class="g" d="M129.778,264.387a2.521,2.521,0,0,0,.252,1.107c-.208.039-.432.094-.665.158a3.616,3.616,0,0,1,.17-1.223Z" transform="translate(-129.364 -263.719)"/></g><g transform="translate(6.73 2.792)"><path class="c" d="M127.417,249.529c-.154.136-.619-.137-1.04-.611a3.152,3.152,0,0,1-.35-.473c-.174-.294-.235-.542-.133-.632.154-.137.619.137,1.04.611S127.571,249.393,127.417,249.529Z" transform="translate(-125.845 -247.778)"/><path class="g" d="M126.071,249.567a3.651,3.651,0,0,0,.763.842c-.153.144-.327.31-.5.481a3.739,3.739,0,0,1-.46-1.168Z" transform="translate(-125.863 -248.857)"/></g><path class="c" d="M111.071,241.6c-.063.2-.6.2-1.206,0a3.139,3.139,0,0,1-.541-.231c-.3-.165-.477-.348-.434-.478.063-.2.6-.2,1.206,0S111.135,241.4,111.071,241.6Z" transform="translate(-108.884 -240.741)"/><path class="g" d="M109.974,242.375a2.52,2.52,0,0,0,1.084.34c-.071.2-.137.421-.2.655a3.63,3.63,0,0,1-.972-.763Z" transform="translate(-109.489 -241.727)"/></g><g transform="translate(15.122 17.73)"><path class="g" d="M107.311,283.013c-.556.5-1.28.609-1.619.235s-.163-1.085.392-1.588,1.28-.609,1.619-.235S107.866,282.51,107.311,283.013Z" transform="translate(-105.519 -280.989)"/><path class="c" d="M108.552,282.478c-.555.5-1.28.609-1.619.235s-.163-1.085.392-1.588,1.28-.609,1.619-.235S109.107,281.975,108.552,282.478Z" transform="translate(-106.268 -280.666)"/><path class="i" d="M108.552,282.478c-.555.5-1.28.609-1.619.235s-.163-1.085.392-1.588,1.28-.609,1.619-.235S109.107,281.975,108.552,282.478Z" transform="translate(-106.268 -280.666)"/></g><g transform="translate(11.754 11.722)"><circle class="g" cx="1.357" cy="1.357" r="1.357" transform="matrix(0.095, -0.995, 0.995, 0.095, 0, 3.322)"/><path class="c" d="M100.65,267.344a1.357,1.357,0,1,1-.814-1.738A1.357,1.357,0,0,1,100.65,267.344Z" transform="translate(-97.625 -265.524)"/><path class="h" d="M100.65,267.344a1.357,1.357,0,1,1-.814-1.738A1.357,1.357,0,0,1,100.65,267.344Z" transform="translate(-97.625 -265.524)"/></g><g class="e" transform="translate(3.925 14.183)"><path d="M88.665,280.008c.021.115-.173.271-.566.424a5.645,5.645,0,0,1-1.739.317,8.346,8.346,0,0,1-1.232-.044,9.009,9.009,0,0,1-7.229-5.39,8.284,8.284,0,0,1-.394-1.168,5.638,5.638,0,0,1-.193-1.757c.034-.42.128-.651.244-.663.256-.027.5.813,1.105,1.993.148.3.327.609.525.937a12.151,12.151,0,0,0,.7,1,9.882,9.882,0,0,0,4.354,3.246,12.112,12.112,0,0,0,1.156.381c.371.1.722.178,1.048.236C87.742,279.757,88.619,279.755,88.665,280.008Z" transform="translate(-77.302 -271.725)"/></g><g class="e" transform="translate(4.111 10.881)"><path d="M78.883,263.445a.829.829,0,1,1-1.078.532A.851.851,0,0,1,78.883,263.445Z" transform="translate(-77.769 -263.404)"/></g></g></g><g transform="translate(73.048 179.632)"><path class="c" d="M158.242,393.19a12.554,12.554,0,0,0,1.072-4.818c1.086-.838,5-1.584,5-1.584l-.226-1.466a22.182,22.182,0,0,1-5.152-.361,12.567,12.567,0,0,0-1.53-3.572,8.4,8.4,0,0,1,2.243-2.651l-.937-1.15a12.467,12.467,0,0,1-2.959,1.7,12.711,12.711,0,0,0-2.245-1.842c-.205-1.331,1.142-5.152,1.142-5.152l-1.381-.543a21.843,21.843,0,0,1-2.91,4.242,12.54,12.54,0,0,0-3.683-.544,9.1,9.1,0,0,1-1.159-3.308l-1.466.231a12.189,12.189,0,0,1-.006,3.355,12.584,12.584,0,0,0-3.085,1.088c-1.3-.563-3.9-3.547-3.9-3.547l-1.168.945a21.042,21.042,0,0,1,2.236,4.558,12.7,12.7,0,0,0-2.565,3.3,8.911,8.911,0,0,1-3.168-.621l-.529,1.406a12.277,12.277,0,0,1,2.73,1.514,12.55,12.55,0,0,0-.552,3.334,22.963,22.963,0,0,1-4.739,1.4l.229,1.484a19.818,19.818,0,0,1,4.818.319,12.565,12.565,0,0,0,1.593,3.862,8.985,8.985,0,0,1-2.119,2.4l.949,1.164a12.291,12.291,0,0,1,2.685-1.6,12.7,12.7,0,0,0,4.4,3.035,21.37,21.37,0,0,1,.073,5.109l1.49.191a19.366,19.366,0,0,1,1.6-4.455,12.013,12.013,0,0,0,5.055-.36,9.159,9.159,0,0,1,1.38,2.822l1.436-.44a12.379,12.379,0,0,1-.469-3.3,12.623,12.623,0,0,0,4.093-3.33,22.778,22.778,0,0,1,4.521,2.049l.8-1.272A21.077,21.077,0,0,1,158.242,393.19ZM144.43,375.653l-.048.009Z" transform="translate(-128.477 -370.93)"/><g class="e" transform="translate(14.58 5.618)"><path class="f" d="M176.437,398.923c-.614-.229-.662-1.512-1.064-3.2-.038-.212-.113-.431-.165-.655s-.138-.453-.2-.687a13.9,13.9,0,0,0-.568-1.433,9.681,9.681,0,0,0-4.561-4.747,13.955,13.955,0,0,0-1.409-.624c-.231-.077-.457-.164-.678-.232s-.438-.145-.648-.191c-1.673-.469-2.953-.568-3.157-1.191a.61.61,0,0,1,.092-.5,1.993,1.993,0,0,1,.569-.582,5.926,5.926,0,0,1,2.6-.948,8.161,8.161,0,0,1,.925-.084c.323-.014.66,0,1.011.017a10.394,10.394,0,0,1,4.516,1.441,10.159,10.159,0,0,1,3.786,3.94,10.391,10.391,0,0,1,1.26,4.57c0,.352,0,.688-.023,1.011a8.21,8.21,0,0,1-.121.92,5.928,5.928,0,0,1-1.051,2.559,1.99,1.99,0,0,1-.6.546A.609.609,0,0,1,176.437,398.923Z" transform="translate(-163.961 -383.842)"/></g><g transform="translate(0 1.479)"><g transform="translate(6.498)"><path class="c" d="M145.967,373.482c.174.209-.207.813-.852,1.349a4.126,4.126,0,0,1-.64.442c-.4.218-.726.287-.841.149-.174-.209.207-.813.851-1.349S145.793,373.273,145.967,373.482Z" transform="translate(-143.593 -373.411)"/><path class="g" d="M145.963,376.546a4.838,4.838,0,0,0,1.145-.973c.184.208.4.445.614.68a4.954,4.954,0,0,1-1.564.559Z" transform="translate(-145.022 -374.715)"/></g><g transform="translate(2.563 8.206)"><path class="c" d="M134.882,394.1c.256.092.233.806-.051,1.594a4.156,4.156,0,0,1-.328.706c-.231.388-.481.615-.65.554-.256-.092-.232-.806.052-1.594S134.627,394.008,134.882,394.1Z" transform="translate(-133.676 -394.091)"/><path class="g" d="M135.846,397.613a3.332,3.332,0,0,0,.495-1.419c.261.1.55.2.857.289a4.785,4.785,0,0,1-1.049,1.252Z" transform="translate(-134.985 -395.359)"/></g><g transform="translate(0 16.05)"><path class="c" d="M127.512,413.861c.268-.045.6.588.737,1.414a4.167,4.167,0,0,1,.06.776c-.011.452-.117.772-.294.8-.268.045-.6-.588-.737-1.414S127.244,413.906,127.512,413.861Z" transform="translate(-127.216 -413.858)"/><path class="g" d="M129.572,416.683a4.827,4.827,0,0,0-.265-1.479c.273-.055.584-.118.9-.189a4.955,4.955,0,0,1-.3,1.633Z" transform="translate(-128.477 -414.556)"/></g><g transform="translate(4.492 24.169)"><path class="c" d="M138.607,435.033c.209-.175.814.2,1.352.846a4.148,4.148,0,0,1,.445.638c.219.4.29.725.152.84-.208.175-.814-.2-1.352-.846S138.4,435.208,138.607,435.033Z" transform="translate(-138.537 -434.724)"/><path class="g" d="M141.677,436.055a3.333,3.333,0,0,0-.977-1.141c.22-.174.448-.376.682-.6a4.8,4.8,0,0,1,.554,1.536Z" transform="translate(-139.842 -434.319)"/></g></g><g transform="translate(12.688 25.355)"><g transform="translate(0 7.683)"><path class="c" d="M159.193,455.565c.031-.27.731-.412,1.563-.316a4.164,4.164,0,0,1,.762.157c.432.136.709.327.688.505-.031.27-.731.412-1.563.316S159.162,455.835,159.193,455.565Z" transform="translate(-159.192 -454.317)"/><path class="g" d="M162.625,454.016a4.833,4.833,0,0,0-1.494-.156c.023-.277.049-.593.067-.913a4.946,4.946,0,0,1,1.484.745Z" transform="translate(-160.362 -452.947)"/></g><g transform="translate(9.726 5.897)"><path class="c" d="M183.711,450.567c-.083-.259.5-.676,1.294-.932a4.174,4.174,0,0,1,.759-.171c.449-.053.781.006.836.177.083.259-.5.676-1.294.932S183.794,450.826,183.711,450.567Z" transform="translate(-183.703 -449.048)"/><path class="g" d="M186.119,448.868a3.336,3.336,0,0,0-1.426.474c-.078-.269-.179-.557-.294-.856a4.793,4.793,0,0,1,1.632.067Z" transform="translate(-184.123 -448.444)"/></g><g transform="translate(19.077)"><path class="c" d="M209.08,436.2c-.233-.141-.067-.836.369-1.551a4.153,4.153,0,0,1,.463-.626c.3-.335.594-.507.748-.413.232.142.067.836-.369,1.552S209.312,436.341,209.08,436.2Z" transform="translate(-208.298 -433.584)"/><path class="g" d="M208.839,434.525a4.831,4.831,0,0,0-.769,1.291c-.242-.137-.518-.293-.8-.444a4.947,4.947,0,0,1,1.3-1.035Z" transform="translate(-207.269 -434.038)"/></g></g><g transform="translate(10.109 17.159)"><path class="g" d="M156.544,416.881c.133.97-.288,1.83-.941,1.92s-1.29-.624-1.424-1.595.288-1.83.941-1.92S156.41,415.911,156.544,416.881Z" transform="translate(-153.575 -414.346)"/><path class="c" d="M155.082,414.529c.133.971-.288,1.83-.94,1.92s-1.29-.624-1.424-1.595.288-1.83.94-1.919S154.948,413.559,155.082,414.529Z" transform="translate(-152.693 -412.927)"/><path class="h" d="M155.082,414.529c.133.971-.288,1.83-.94,1.92s-1.29-.624-1.424-1.595.288-1.83.94-1.919S154.948,413.559,155.082,414.529Z" transform="translate(-152.693 -412.927)"/></g><g transform="translate(9.663 8.362)"><path class="g" d="M154.1,393.354c.795-.573,1.751-.6,2.136-.068s.053,1.432-.742,2-1.751.6-2.137.068S153.307,393.926,154.1,393.354Z" transform="translate(-152.553 -392.053)"/><path class="c" d="M152.472,391.209c.8-.573,1.752-.6,2.137-.068s.053,1.432-.742,2-1.751.6-2.136.068S151.677,391.781,152.472,391.209Z" transform="translate(-151.57 -390.759)"/><path class="h" d="M152.472,391.209c.8-.573,1.752-.6,2.137-.068s.053,1.432-.742,2-1.751.6-2.136.068S151.677,391.781,152.472,391.209Z" transform="translate(-151.57 -390.759)"/></g><g transform="translate(14.872 22.868)"><path class="g" d="M167.235,429.885a1.168,1.168,0,1,1-1.316-1A1.168,1.168,0,0,1,167.235,429.885Z" transform="translate(-164.825 -428.257)"/><path class="c" d="M167.02,428.324a1.168,1.168,0,1,1-1.316-1A1.167,1.167,0,0,1,167.02,428.324Z" transform="translate(-164.695 -427.315)"/><path class="i" d="M167.02,428.324a1.168,1.168,0,1,1-1.316-1A1.167,1.167,0,0,1,167.02,428.324Z" transform="translate(-164.695 -427.315)"/></g><g transform="translate(20.933 10.273)"><path class="g" d="M182.584,399.419a1.436,1.436,0,1,1-.359-2A1.436,1.436,0,0,1,182.584,399.419Z" transform="translate(-179.97 -396.532)"/><path class="c" d="M183.69,397.828a1.436,1.436,0,1,1-.359-2A1.435,1.435,0,0,1,183.69,397.828Z" transform="translate(-180.637 -395.573)"/><path class="i" d="M183.69,397.828a1.436,1.436,0,1,1-.359-2A1.435,1.435,0,0,1,183.69,397.828Z" transform="translate(-180.637 -395.573)"/></g><g transform="translate(21.561 23.633)"><path class="g" d="M183.415,431.128a.856.856,0,1,1-.965-.732A.856.856,0,0,1,183.415,431.128Z" transform="translate(-181.648 -429.934)"/><path class="c" d="M183.258,429.983a.856.856,0,1,1-.965-.732A.856.856,0,0,1,183.258,429.983Z" transform="translate(-181.553 -429.244)"/><path class="i" d="M183.258,429.983a.856.856,0,1,1-.965-.732A.856.856,0,0,1,183.258,429.983Z" transform="translate(-181.553 -429.244)"/></g><g transform="translate(14.716)"><g transform="translate(20.232 13.538)"><path class="c" d="M217.653,406.759c-.265.044-.591-.581-.728-1.4a4.088,4.088,0,0,1-.059-.767c.011-.447.116-.762.291-.792.265-.044.591.581.728,1.4S217.918,406.715,217.653,406.759Z" transform="translate(-216.24 -403.801)"/><path class="g" d="M215.915,405.966a4.761,4.761,0,0,0,.261,1.461c-.269.054-.577.116-.886.186a4.892,4.892,0,0,1,.3-1.613Z" transform="translate(-215.29 -405.107)"/></g><g transform="translate(15.233 5.75)"><path class="c" d="M204.7,386.516c-.206.173-.8-.2-1.335-.836a4.052,4.052,0,0,1-.439-.631c-.217-.391-.286-.716-.15-.83.206-.173.8.2,1.335.836S204.9,386.343,204.7,386.516Z" transform="translate(-202.698 -384.176)"/><path class="g" d="M202.947,386.517a3.293,3.293,0,0,0,.965,1.128c-.217.172-.442.371-.673.588a4.732,4.732,0,0,1-.547-1.518Z" transform="translate(-202.692 -385.588)"/></g><g transform="translate(9.455)"><path class="c" d="M190.947,370.911c-.1.252-.8.218-1.574-.074a4.1,4.1,0,0,1-.692-.335c-.38-.234-.6-.484-.538-.65.095-.252.8-.218,1.574.074S191.042,370.66,190.947,370.911Z" transform="translate(-188.132 -369.684)"/><path class="g" d="M189.452,371.834a4.771,4.771,0,0,0,1.394.509c-.089.259-.19.557-.285.859a4.9,4.9,0,0,1-1.242-1.071Z" transform="translate(-188.848 -370.981)"/></g><g transform="translate(0 0.391)"><path class="c" d="M167.259,370.958c.046.265-.579.593-1.395.733a4.07,4.07,0,0,1-.766.062c-.447-.009-.763-.113-.793-.288-.046-.265.579-.593,1.395-.733S167.214,370.693,167.259,370.958Z" transform="translate(-164.303 -370.669)"/><path class="g" d="M166.471,373a3.3,3.3,0,0,0,1.46-.267c.039.274.1.569.169.878a4.731,4.731,0,0,1-1.587-.291Z" transform="translate(-165.611 -371.914)"/></g></g><g transform="translate(23.617 18.736)"><path class="g" d="M189.13,420.4c-.336.92-1.11,1.482-1.729,1.256s-.848-1.155-.512-2.075,1.111-1.483,1.73-1.257S189.466,419.48,189.13,420.4Z" transform="translate(-186.734 -417.73)"/><path class="c" d="M190.24,419.027c-.336.92-1.11,1.482-1.729,1.256s-.848-1.155-.512-2.075,1.111-1.482,1.73-1.256S190.577,418.107,190.24,419.027Z" transform="translate(-187.403 -416.902)"/><path class="i" d="M190.24,419.027c-.336.92-1.11,1.482-1.729,1.256s-.848-1.155-.512-2.075,1.111-1.482,1.73-1.256S190.577,418.107,190.24,419.027Z" transform="translate(-187.403 -416.902)"/></g><g transform="translate(16.236 13.987)"><path class="g" d="M172.019,409.039a1.774,1.774,0,1,1-2-1.516A1.774,1.774,0,0,1,172.019,409.039Z" transform="translate(-168.347 -406.485)"/><path class="c" d="M171.665,406.465a1.774,1.774,0,1,1-2-1.516A1.774,1.774,0,0,1,171.665,406.465Z" transform="translate(-168.134 -404.933)"/><path class="h" d="M171.665,406.465a1.774,1.774,0,1,1-2-1.516A1.774,1.774,0,0,1,171.665,406.465Z" transform="translate(-168.134 -404.933)"/></g><g class="e" transform="translate(7.825 22.678)"><path d="M164.894,429.687c.095.121-.035.419-.4.834a7.362,7.362,0,0,1-1.819,1.424,10.8,10.8,0,0,1-1.452.7,11.777,11.777,0,0,1-11.637-1.838,10.833,10.833,0,0,1-1.166-1.111,7.38,7.38,0,0,1-1.292-1.915c-.216-.506-.248-.83-.12-.915.279-.187,1.078.634,2.49,1.632.352.252.749.505,1.177.764s.9.507,1.412.733A12.914,12.914,0,0,0,159.1,431.1c.555-.058,1.077-.161,1.569-.262s.943-.233,1.355-.365C163.673,429.958,164.686,429.423,164.894,429.687Z" transform="translate(-146.936 -426.836)"/></g><g class="e" transform="translate(6.183 18.278)"><path d="M143.74,415.767a1.083,1.083,0,1,1-.923,1.271A1.112,1.112,0,0,1,143.74,415.767Z" transform="translate(-142.799 -415.747)"/></g></g><g transform="translate(89.574 97.663)"><path class="c" d="M236.546,213.672a27.258,27.258,0,0,0,1.9-10.554c2.284-1.916,10.709-3.882,10.709-3.882l-.621-3.163c-3.39.655-10.245-.2-11.217-.328a27.265,27.265,0,0,0-3.638-7.618c.907-2.751,4.635-5.955,4.635-5.955l-2.137-2.414a27.094,27.094,0,0,1-6.273,3.953,27.614,27.614,0,0,0-5.037-3.8c-.563-2.872,2.022-11.287,2.022-11.287l-3.046-1.055c-1.225,3.5-5.913,9.43-5.942,9.468a27.248,27.248,0,0,0-8.044-.855c-1.865-2.219-2.81-7.079-2.81-7.079l-3.161.632a26.488,26.488,0,0,1,.285,7.284,27.325,27.325,0,0,0-6.6,2.635c-2.87-1.106-8.774-7.356-8.774-7.356l-2.451,2.155c2.2,2.512,4.71,8.384,5.258,9.7a27.6,27.6,0,0,0-5.274,7.394c-2.869.346-6.934-1.068-6.934-1.068l-1.023,3.1a26.709,26.709,0,0,1,6.061,3.045,27.252,27.252,0,0,0-.9,7.287c-2.959,1.78-10.165,3.466-10.165,3.466l.629,3.2c2.96-.573,8.421.01,10.488.265a27.287,27.287,0,0,0,3.8,8.244c-1.165,2.637-4.387,5.4-4.387,5.4l2.164,2.443a26.681,26.681,0,0,1,5.687-3.709,27.594,27.594,0,0,0,9.822,6.2c1.02,3.136.611,11.085.611,11.085l3.251.283c.263-2.924,2.223-7.791,3.083-9.814a26.118,26.118,0,0,0,10.943-1.229,19.9,19.9,0,0,1,3.246,6l3.079-1.081a26.923,26.923,0,0,1-1.311-7.115,27.444,27.444,0,0,0,8.592-7.591c3.389.569,10,4.047,10,4.047l1.622-2.832C241.731,219.471,237.362,214.6,236.546,213.672Zm-31.539-36.848-.1.024Z" transform="translate(-171.58 -165.799)"/><g class="e" transform="translate(30.7 12.675)"><path class="f" d="M274.481,227.1c-1.353-.442-1.571-3.224-2.594-6.858-.1-.456-.284-.925-.417-1.407-.148-.481-.339-.971-.506-1.474a30.113,30.113,0,0,0-1.359-3.06,21.035,21.035,0,0,0-10.322-9.9,30.158,30.158,0,0,0-3.115-1.23c-.509-.146-1.007-.316-1.494-.444-.487-.112-.963-.275-1.423-.358-3.673-.87-6.462-.971-6.959-2.305a1.32,1.32,0,0,1,.155-1.094,4.317,4.317,0,0,1,1.184-1.314,12.882,12.882,0,0,1,5.558-2.288,17.976,17.976,0,0,1,2-.264c.7-.06,1.434-.056,2.2-.052a22.584,22.584,0,0,1,9.933,2.728A22.076,22.076,0,0,1,275.888,206a22.584,22.584,0,0,1,3.14,9.809c.036.763.069,1.494.039,2.2a18.025,18.025,0,0,1-.18,2.009,12.89,12.89,0,0,1-2.054,5.648,4.33,4.33,0,0,1-1.264,1.238A1.324,1.324,0,0,1,274.481,227.1Z" transform="translate(-246.232 -195.053)"/></g><g transform="translate(0 4.627)"><g transform="translate(12.778)"><path class="c" d="M206.063,174.908c.4.438-.378,1.783-1.728,3a8.966,8.966,0,0,1-1.351,1.018c-.841.508-1.55.688-1.812.4-.4-.438.378-1.783,1.729-3S205.667,174.47,206.063,174.908Z" transform="translate(-201.068 -174.769)"/><path class="g" d="M206.2,181.7a10.492,10.492,0,0,0,2.4-2.214c.418.435.9.931,1.393,1.421a10.763,10.763,0,0,1-3.346,1.352Z" transform="translate(-204.167 -177.615)"/></g><g transform="translate(5.005 18.256)"><path class="c" d="M183.89,220.794c.563.178.577,1.729.03,3.465a9.024,9.024,0,0,1-.65,1.561c-.468.864-.989,1.378-1.362,1.26-.564-.178-.577-1.729-.03-3.465S183.327,220.616,183.89,220.794Z" transform="translate(-181.477 -220.777)"/><path class="g" d="M186.168,228.421a7.241,7.241,0,0,0,.948-3.124c.576.2,1.212.381,1.887.553a10.411,10.411,0,0,1-2.167,2.811Z" transform="translate(-184.307 -223.503)"/></g><g transform="translate(0 35.586)"><path class="c" d="M169.433,264.458c.578-.122,1.351,1.223,1.726,3a9,9,0,0,1,.2,1.68c.016.983-.186,1.686-.569,1.766-.578.122-1.351-1.224-1.726-3.005S168.855,264.58,169.433,264.458Z" transform="translate(-168.864 -264.451)"/><path class="g" d="M174.072,270.326a10.5,10.5,0,0,0-.706-3.188c.587-.142,1.257-.307,1.929-.489a10.765,10.765,0,0,1-.515,3.572Z" transform="translate(-171.58 -265.777)"/></g><g transform="translate(10.443 52.705)"><path class="c" d="M195.321,309.455c.437-.4,1.784.371,3.01,1.717a8.977,8.977,0,0,1,1.023,1.347c.511.839.694,1.548.4,1.811-.437.4-1.784-.371-3.01-1.718S194.883,309.853,195.321,309.455Z" transform="translate(-195.183 -308.654)"/><path class="g" d="M202.125,311.339a7.241,7.241,0,0,0-2.223-2.391c.461-.4.939-.856,1.427-1.353a10.42,10.42,0,0,1,1.34,3.287Z" transform="translate(-198.029 -307.595)"/></g></g><g transform="translate(28.961 54.216)"><g transform="translate(0 18.499)"><path class="c" d="M241.851,352.08c.043-.59,1.55-.959,3.366-.825a9,9,0,0,1,1.669.273c.949.257,1.568.646,1.539,1.036-.043.59-1.55.959-3.365.825S241.807,352.669,241.851,352.08Z" transform="translate(-241.85 -349.297)"/><path class="g" d="M249.239,348.556a10.493,10.493,0,0,0-3.259-.205c.026-.6.053-1.292.065-1.989a10.766,10.766,0,0,1,3.289,1.485Z" transform="translate(-244.341 -346.362)"/></g><g transform="translate(20.974 13.728)"><path class="c" d="M294.73,338.886c-.2-.555,1.018-1.513,2.727-2.138a9.012,9.012,0,0,1,1.634-.438c.97-.156,1.7-.058,1.83.31.2.555-1.018,1.512-2.727,2.138S294.934,339.441,294.73,338.886Z" transform="translate(-294.708 -335.484)"/><path class="g" d="M299.67,335.187a7.247,7.247,0,0,0-3.053,1.155c-.194-.577-.438-1.192-.714-1.832a10.419,10.419,0,0,1,3.549,0Z" transform="translate(-295.429 -334.339)"/></g><g transform="translate(40.742)"><path class="c" d="M348.7,305.553c-.517-.286-.219-1.809.664-3.4a9,9,0,0,1,.949-1.4c.632-.753,1.244-1.152,1.586-.962.517.287.219,1.809-.664,3.4S349.219,305.84,348.7,305.553Z" transform="translate(-346.892 -299.742)"/><path class="g" d="M347.857,301.978a10.5,10.5,0,0,0-1.554,2.871c-.536-.277-1.151-.591-1.778-.894a10.763,10.763,0,0,1,2.729-2.361Z" transform="translate(-344.525 -300.859)"/></g></g><g transform="translate(21.977 38.445)"><path class="g" d="M232.826,268.338c.376,2.1-.462,4-1.872,4.251s-2.857-1.24-3.232-3.336.462-4,1.871-4.251S232.45,266.243,232.826,268.338Z" transform="translate(-226.29 -262.999)"/><path class="c" d="M229.442,263.36c.376,2.1-.462,4-1.872,4.251s-2.857-1.24-3.232-3.336.462-4,1.871-4.251S229.066,261.265,229.442,263.36Z" transform="translate(-224.249 -259.997)"/><path class="h" d="M229.442,263.36c.376,2.1-.462,4-1.872,4.251s-2.857-1.24-3.232-3.336.462-4,1.871-4.251S229.066,261.265,229.442,263.36Z" transform="translate(-224.249 -259.997)"/></g><g transform="translate(20.264 19.289)"><path class="g" d="M225.49,217.326c1.675-1.313,3.749-1.463,4.632-.336s.241,3.1-1.434,4.418-3.749,1.463-4.633.336S223.815,218.639,225.49,217.326Z" transform="translate(-222.18 -214.443)"/><path class="c" d="M221.762,212.814c1.675-1.313,3.749-1.464,4.633-.337s.241,3.1-1.434,4.418-3.749,1.464-4.633.337S220.087,214.127,221.762,212.814Z" transform="translate(-219.932 -211.722)"/><path class="h" d="M221.762,212.814c1.675-1.313,3.749-1.464,4.633-.337s.241,3.1-1.434,4.418-3.749,1.464-4.633.337S220.087,214.127,221.762,212.814Z" transform="translate(-219.932 -211.722)"/></g><g transform="translate(32.789 50.409)"><path class="g" d="M257.136,295.608a2.537,2.537,0,1,1-2.945-2.049A2.537,2.537,0,0,1,257.136,295.608Z" transform="translate(-251.862 -292.181)"/><path class="c" d="M256.532,292.238a2.537,2.537,0,1,1-2.945-2.049A2.537,2.537,0,0,1,256.532,292.238Z" transform="translate(-251.498 -290.149)"/><path class="i" d="M256.532,292.238a2.537,2.537,0,1,1-2.945-2.049A2.537,2.537,0,0,1,256.532,292.238Z" transform="translate(-251.498 -290.149)"/></g><g transform="translate(44.301 22.464)"><circle class="g" cx="3.12" cy="3.12" r="3.12" transform="translate(0 2.171) rotate(-12.686)"/><path class="c" d="M290.056,224.517a3.12,3.12,0,1,1-.957-4.306A3.12,3.12,0,0,1,290.056,224.517Z" transform="translate(-282.799 -219.722)"/><path class="i" d="M290.056,224.517a3.12,3.12,0,1,1-.957-4.306A3.12,3.12,0,0,1,290.056,224.517Z" transform="translate(-282.799 -219.722)"/></g><g transform="translate(47.352 51.506)"><path class="g" d="M292.334,296.916a1.86,1.86,0,1,1-2.159-1.5A1.861,1.861,0,0,1,292.334,296.916Z" transform="translate(-288.467 -294.403)"/><path class="c" d="M291.891,294.445a1.86,1.86,0,1,1-2.159-1.5A1.86,1.86,0,0,1,291.891,294.445Z" transform="translate(-288.2 -292.913)"/><path class="i" d="M291.891,294.445a1.86,1.86,0,1,1-2.159-1.5A1.86,1.86,0,0,1,291.891,294.445Z" transform="translate(-288.2 -292.913)"/></g><g transform="translate(30.425)"><g transform="translate(45.243 28.395)"><path class="c" d="M364.5,241.049c-.571.12-1.334-1.209-1.7-2.969a8.9,8.9,0,0,1-.2-1.659c-.015-.971.184-1.665.562-1.744.571-.12,1.334,1.209,1.7,2.969S365.073,240.929,364.5,241.049Z" transform="translate(-361.394 -234.669)"/><path class="g" d="M360.769,239.44a10.371,10.371,0,0,0,.7,3.149c-.58.14-1.242.3-1.906.482a10.642,10.642,0,0,1,.51-3.528Z" transform="translate(-359.56 -237.547)"/></g><g transform="translate(33.506 11.997)"><path class="c" d="M334.5,198.265c-.432.392-1.763-.367-2.972-1.7a8.9,8.9,0,0,1-1.01-1.331c-.5-.829-.684-1.529-.4-1.789.432-.393,1.763.367,2.972,1.7S334.929,197.872,334.5,198.265Z" transform="translate(-329.98 -193.343)"/><path class="g" d="M330.7,198.416a7.159,7.159,0,0,0,2.195,2.363c-.456.392-.928.845-1.41,1.336a10.29,10.29,0,0,1-1.322-3.247Z" transform="translate(-330.089 -196.403)"/></g><g transform="translate(20.445)"><path class="c" d="M303.264,165.568c-.184.554-1.716.545-3.423-.021a8.9,8.9,0,0,1-1.533-.665c-.847-.475-1.346-1-1.225-1.363.184-.554,1.717-.545,3.423.021S303.448,165.014,303.264,165.568Z" transform="translate(-297.065 -163.11)"/><path class="g" d="M300.11,167.752a10.357,10.357,0,0,0,3.072.982c-.17.572-.363,1.226-.542,1.89a10.632,10.632,0,0,1-2.792-2.216Z" transform="translate(-298.744 -165.91)"/></g><g transform="translate(0 1.539)"><path class="c" d="M251.916,167.545c.122.571-1.2,1.339-2.963,1.715a8.9,8.9,0,0,1-1.659.2c-.971.019-1.666-.178-1.746-.555-.122-.571,1.2-1.339,2.963-1.715S251.793,166.974,251.916,167.545Z" transform="translate(-245.54 -166.988)"/><path class="g" d="M250.317,172.141a7.16,7.16,0,0,0,3.147-.708c.11.592.263,1.227.445,1.891a10.29,10.29,0,0,1-3.472-.492Z" transform="translate(-248.422 -169.669)"/></g></g><g transform="translate(51.542 40.586)"><path class="g" d="M303.962,273.019c-.648,2.028-2.279,3.317-3.643,2.881s-1.944-2.433-1.3-4.46,2.28-3.317,3.643-2.881S304.61,270.992,303.962,273.019Z" transform="translate(-298.758 -267.252)"/><path class="c" d="M306.25,269.939c-.648,2.027-2.28,3.317-3.643,2.881s-1.944-2.433-1.3-4.46,2.279-3.317,3.643-2.881S306.9,267.911,306.25,269.939Z" transform="translate(-300.138 -265.393)"/><path class="i" d="M306.25,269.939c-.648,2.027-2.28,3.317-3.643,2.881s-1.944-2.433-1.3-4.46,2.279-3.317,3.643-2.881S306.9,267.911,306.25,269.939Z" transform="translate(-300.138 -265.393)"/></g><g transform="translate(35.016 30.952)"><path class="g" d="M265.754,249.845a3.854,3.854,0,1,1-4.474-3.113A3.854,3.854,0,0,1,265.754,249.845Z" transform="translate(-257.711 -244.466)"/><path class="c" d="M264.758,244.288a3.854,3.854,0,1,1-4.474-3.113A3.854,3.854,0,0,1,264.758,244.288Z" transform="translate(-257.11 -241.114)"/><path class="h" d="M264.758,244.288a3.854,3.854,0,1,1-4.474-3.113A3.854,3.854,0,0,1,264.758,244.288Z" transform="translate(-257.11 -241.114)"/></g><g class="k" transform="translate(17.391 50.711)"><path d="M251.912,295.523c.217.253-.038.913-.787,1.846a16.014,16.014,0,0,1-3.823,3.252,23.489,23.489,0,0,1-3.09,1.643,25.588,25.588,0,0,1-25.427-2.959,23.546,23.546,0,0,1-2.63-2.309,16.012,16.012,0,0,1-2.973-4.043c-.515-1.08-.612-1.78-.343-1.977.59-.431,2.4,1.28,5.55,3.324.785.515,1.67,1.03,2.623,1.555.969.5,2,1.021,3.13,1.467a28.05,28.05,0,0,0,15.314,1.782c1.2-.175,2.324-.446,3.382-.708,1.048-.292,2.027-.59,2.91-.911C249.286,296.22,251.437,294.968,251.912,295.523Z" transform="translate(-212.692 -290.91)"/></g><g class="k" transform="translate(13.515 41.215)"><path d="M204.871,267.043a2.353,2.353,0,1,1-1.892,2.841A2.415,2.415,0,0,1,204.871,267.043Z" transform="translate(-202.923 -266.978)"/></g></g><g transform="translate(153.676 54.61)"><path class="c" d="M365.564,76.6A14.409,14.409,0,0,0,364.17,71.1c.68-1.422,4.3-4.21,4.3-4.21l-.99-1.386a25.47,25.47,0,0,1-5.468,2.3,14.4,14.4,0,0,0-3.416-2.869,9.654,9.654,0,0,1,.927-3.879l-1.556-.694a14.325,14.325,0,0,1-2.154,3.274,14.59,14.59,0,0,0-3.255-.727c-.9-1.258-1.5-5.872-1.5-5.872l-1.7.159a25.1,25.1,0,0,1-.788,5.854,14.416,14.416,0,0,0-4.057,1.348,10.457,10.457,0,0,1-2.9-2.792l-1.382,1a14.019,14.019,0,0,1,1.73,3.442,14.42,14.42,0,0,0-2.6,2.711c-1.623.1-5.83-1.62-5.83-1.62l-.708,1.573a24.134,24.134,0,0,1,4.65,3.515,14.6,14.6,0,0,0-.92,4.71,10.233,10.233,0,0,1-3.57,1l.186,1.715a14.082,14.082,0,0,1,3.581.14,14.411,14.411,0,0,0,1.16,3.7,26.368,26.368,0,0,1-4.132,3.891l1,1.4a22.771,22.771,0,0,1,5.1-2.166,14.417,14.417,0,0,0,3.631,3.135,10.322,10.322,0,0,1-.93,3.557l1.576.7a14.1,14.1,0,0,1,1.924-3.028,14.583,14.583,0,0,0,6.081.834c1.177,1.285,2.718,5.2,2.718,5.2l1.626-.575a22.24,22.24,0,0,1-.663-5.4,13.783,13.783,0,0,0,5-2.985,10.518,10.518,0,0,1,2.875,2.178l1.245-1.194a14.224,14.224,0,0,1-2.187-3.136,14.5,14.5,0,0,0,2.473-5.531,26.147,26.147,0,0,1,5.695-.24l.161-1.717A24.2,24.2,0,0,1,365.564,76.6ZM342.332,65.768l-.044.035Z" transform="translate(-331.873 -56.074)"/><g class="e" transform="translate(10.466 7.752)"><path class="f" d="M376.428,86.72c-.748.084-1.461-1.207-2.747-2.732-.149-.2-.339-.383-.508-.586s-.376-.393-.566-.6a15.948,15.948,0,0,0-1.323-1.175,11.115,11.115,0,0,0-7.131-2.505,15.922,15.922,0,0,0-1.767.089c-.277.041-.554.068-.816.113s-.523.078-.763.139c-1.957.385-3.321.946-3.852.413a.7.7,0,0,1-.165-.561,2.29,2.29,0,0,1,.282-.891,6.811,6.811,0,0,1,2.174-2.316,9.494,9.494,0,0,1,.9-.565c.325-.182.677-.34,1.046-.506a11.944,11.944,0,0,1,5.375-.86,11.671,11.671,0,0,1,5.919,2.08,11.929,11.929,0,0,1,3.656,4.032c.184.359.36.7.5,1.049A9.434,9.434,0,0,1,377,82.346a6.809,6.809,0,0,1,.248,3.166,2.292,2.292,0,0,1-.337.873A.7.7,0,0,1,376.428,86.72Z" transform="translate(-356.786 -74.146)"/></g><g transform="translate(0 10.09)"><path class="c" d="M331.97,80.055c.287.124.208.94-.175,1.823a4.765,4.765,0,0,1-.427.785c-.294.429-.6.67-.785.588-.286-.124-.208-.94.175-1.823S331.684,79.931,331.97,80.055Z" transform="translate(-330.41 -80.039)"/><path class="g" d="M332.931,84.078a5.543,5.543,0,0,0,.67-1.59c.3.118.636.252.981.379a5.685,5.685,0,0,1-1.314,1.382Z" transform="translate(-331.931 -81.516)"/><g transform="translate(0.155 11.003)"><path class="c" d="M331.189,107.77c.31-.038.656.706.772,1.661a4.721,4.721,0,0,1,.029.893c-.036.518-.174.879-.379.9-.31.038-.656-.706-.772-1.661S330.879,107.808,331.189,107.77Z" transform="translate(-330.8 -107.769)"/><path class="g" d="M333.467,111.2a3.827,3.827,0,0,0-.227-1.71c.321-.031.667-.082,1.029-.147a5.5,5.5,0,0,1-.428,1.826Z" transform="translate(-332.272 -108.715)"/></g><g transform="translate(0.941 20.563)"><path class="c" d="M332.877,132.486c.252-.185.917.293,1.487,1.068a4.743,4.743,0,0,1,.463.764c.223.469.279.852.113.974-.252.185-.918-.293-1.488-1.068S332.625,132.671,332.877,132.486Z" transform="translate(-332.781 -132.214)"/><path class="g" d="M336.282,133.9a5.54,5.54,0,0,0-1.037-1.379c.251-.2.538-.423.821-.657a5.7,5.7,0,0,1,.533,1.831Z" transform="translate(-334.267 -131.861)"/></g><g transform="translate(9.755 26.186)"><path class="c" d="M355.011,148.482c.123-.287.94-.212,1.824.168a4.771,4.771,0,0,1,.786.425c.43.292.672.593.59.783-.123.287-.94.212-1.823-.168S354.888,148.769,355.011,148.482Z" transform="translate(-354.995 -147.405)"/><path class="g" d="M359.035,147.659a3.828,3.828,0,0,0-1.592-.664c.135-.292.264-.617.39-.963a5.5,5.5,0,0,1,1.363,1.288Z" transform="translate(-356.472 -146.032)"/></g></g><g transform="translate(22.4 21.465)"><g transform="translate(0 18.417)"><path class="c" d="M386.873,157.532c-.108-.293.536-.8,1.438-1.133a4.747,4.747,0,0,1,.863-.234c.512-.084.9-.032.967.162.108.293-.536.8-1.439,1.133S386.981,157.825,386.873,157.532Z" transform="translate(-386.861 -155.727)"/><path class="g" d="M389.438,155.57a5.547,5.547,0,0,0-1.613.614c-.119-.3-.257-.634-.4-.971a5.7,5.7,0,0,1,1.907,0Z" transform="translate(-387.199 -155.119)"/></g><g transform="translate(8.715 11.123)"><path class="c" d="M409.963,139.247c-.219-.223.159-.95.844-1.625a4.756,4.756,0,0,1,.69-.568c.432-.288.8-.4.948-.251.219.223-.159.95-.844,1.625S410.182,139.47,409.963,139.247Z" transform="translate(-409.474 -136.738)"/><path class="g" d="M410.785,137.219a3.828,3.828,0,0,0-1.216,1.223c-.22-.235-.471-.478-.744-.725a5.51,5.51,0,0,1,1.708-.776Z" transform="translate(-408.825 -136.86)"/></g><g transform="translate(15.634)"><path class="c" d="M429.282,112.178c-.311-.025-.5-.823-.425-1.782a4.779,4.779,0,0,1,.15-.881c.139-.5.347-.827.553-.81.311.025.5.823.424,1.781S429.593,112.2,429.282,112.178Z" transform="translate(-427.817 -108.705)"/><path class="g" d="M427.432,110.851a5.542,5.542,0,0,0-.119,1.721c-.319-.016-.683-.033-1.051-.041a5.692,5.692,0,0,1,.8-1.733Z" transform="translate(-426.261 -109.968)"/></g></g><g transform="translate(11.438 24.801)"><path class="g" d="M364.7,119.839c.639.925.652,2.024.029,2.454s-1.646.028-2.285-.9-.652-2.024-.029-2.454S364.058,118.913,364.7,119.839Z" transform="translate(-360.875 -118.112)"/><path class="c" d="M361.98,118.184c.639.926.652,2.024.029,2.454s-1.646.028-2.284-.9-.652-2.024-.029-2.455S361.341,117.258,361.98,118.184Z" transform="translate(-359.237 -117.114)"/><path class="h" d="M361.98,118.184c.639.926.652,2.024.029,2.454s-1.646.028-2.284-.9-.652-2.024-.029-2.455S361.341,117.258,361.98,118.184Z" transform="translate(-359.237 -117.114)"/></g><g transform="translate(6.733 15.391)"><path class="g" d="M350.479,96.036c.519-1,1.484-1.524,2.155-1.175s.8,1.441.277,2.439-1.484,1.524-2.155,1.175S349.96,97.034,350.479,96.036Z" transform="translate(-349.055 -94.215)"/><path class="c" d="M347.7,94.681c.519-1,1.484-1.524,2.155-1.175s.8,1.441.276,2.439-1.483,1.524-2.155,1.175S347.18,95.679,347.7,94.681Z" transform="translate(-347.378 -93.398)"/><path class="h" d="M347.7,94.681c.519-1,1.484-1.524,2.155-1.175s.8,1.441.276,2.439-1.483,1.524-2.155,1.175S347.18,95.679,347.7,94.681Z" transform="translate(-347.378 -93.398)"/></g><g transform="translate(19.201 28.105)"><path class="g" d="M382.271,127.509a1.341,1.341,0,1,1-1.865-.342A1.341,1.341,0,0,1,382.271,127.509Z" transform="translate(-379.419 -126.339)"/><path class="c" d="M381.243,126.02a1.341,1.341,0,1,1-1.865-.342A1.341,1.341,0,0,1,381.243,126.02Z" transform="translate(-378.799 -125.44)"/><path class="i" d="M381.243,126.02a1.341,1.341,0,1,1-1.865-.342A1.341,1.341,0,0,1,381.243,126.02Z" transform="translate(-378.799 -125.44)"/></g><g transform="translate(19.328 11.659)"><path class="g" d="M382.4,88.075a1.649,1.649,0,1,1-1.4-1.863A1.648,1.648,0,0,1,382.4,88.075Z" transform="translate(-379.119 -85.322)"/><path class="c" d="M382.711,85.872a1.649,1.649,0,1,1-1.4-1.863A1.648,1.648,0,0,1,382.711,85.872Z" transform="translate(-379.307 -83.993)"/><path class="i" d="M382.711,85.872a1.649,1.649,0,1,1-1.4-1.863A1.648,1.648,0,0,1,382.711,85.872Z" transform="translate(-379.307 -83.993)"/></g><g transform="translate(26.331 25.628)"><path class="g" d="M399.314,120.713a.983.983,0,1,1-1.368-.251A.983.983,0,0,1,399.314,120.713Z" transform="translate(-397.222 -119.855)"/><path class="c" d="M398.56,119.621a.983.983,0,1,1-1.367-.251A.983.983,0,0,1,398.56,119.621Z" transform="translate(-396.767 -119.196)"/><path class="i" d="M398.56,119.621a.983.983,0,1,1-1.367-.251A.983.983,0,0,1,398.56,119.621Z" transform="translate(-396.767 -119.196)"/></g><g transform="translate(7.324)"><g transform="translate(27.936 8.389)"><path class="c" d="M421.6,78.565c-.248.183-.906-.29-1.469-1.056a4.71,4.71,0,0,1-.458-.755c-.22-.463-.276-.841-.111-.962.249-.183.906.29,1.469,1.056S421.846,78.382,421.6,78.565Z" transform="translate(-419.387 -75.752)"/><path class="g" d="M419.586,78.446a5.483,5.483,0,0,0,1.024,1.363c-.248.194-.531.417-.811.649a5.618,5.618,0,0,1-.526-1.809Z" transform="translate(-419.27 -77.377)"/></g><g transform="translate(18.095 3.338)"><path class="c" d="M397.647,64.554c-.122.284-.928.209-1.8-.167a4.683,4.683,0,0,1-.777-.419c-.425-.288-.664-.586-.583-.773.122-.283.929-.209,1.8.167S397.769,64.271,397.647,64.554Z" transform="translate(-394.47 -63.023)"/><path class="g" d="M395.891,65.511a3.783,3.783,0,0,0,1.573.657c-.134.289-.262.609-.386.951a5.438,5.438,0,0,1-1.346-1.273Z" transform="translate(-395.231 -64.524)"/></g><g transform="translate(9.213)"><path class="c" d="M375.508,55.012c.033.307-.707.638-1.652.739a4.7,4.7,0,0,1-.883.015c-.511-.043-.866-.185-.888-.388-.033-.307.707-.638,1.651-.738S375.476,54.705,375.508,55.012Z" transform="translate(-372.085 -54.61)"/><path class="g" d="M374.512,57.236a5.473,5.473,0,0,0,1.693-.2c.043.312.094.669.153,1.028a5.619,5.619,0,0,1-1.828-.456Z" transform="translate(-373.549 -56.074)"/></g><g transform="translate(0 4.566)"><path class="c" d="M351.673,66.212c.184.248-.286.907-1.05,1.473a4.728,4.728,0,0,1-.754.461c-.463.221-.84.279-.962.115-.184-.248.286-.907,1.05-1.473S351.49,65.964,351.673,66.212Z" transform="translate(-348.868 -66.117)"/><path class="g" d="M351.562,69.582a3.778,3.778,0,0,0,1.359-1.029c.182.261.4.533.628.812a5.433,5.433,0,0,1-1.778.523Z" transform="translate(-350.493 -67.586)"/></g></g><g transform="translate(26.662 18.934)"><path class="g" d="M400.344,106.179c.132,1.117-.371,2.094-1.122,2.183s-1.467-.745-1.6-1.862.371-2.094,1.123-2.183S400.213,105.062,400.344,106.179Z" transform="translate(-397.602 -103.524)"/><path class="c" d="M400.772,104.2c.131,1.117-.371,2.094-1.123,2.183s-1.467-.746-1.6-1.863.371-2.094,1.123-2.183S400.64,103.08,400.772,104.2Z" transform="translate(-397.86 -102.328)"/><path class="i" d="M400.772,104.2c.131,1.117-.371,2.094-1.123,2.183s-1.467-.746-1.6-1.863.371-2.094,1.123-2.183S400.64,103.08,400.772,104.2Z" transform="translate(-397.86 -102.328)"/></g><g transform="translate(16.242 17.907)"><path class="g" d="M376.751,103.075a2.037,2.037,0,1,1-2.833-.519A2.036,2.036,0,0,1,376.751,103.075Z" transform="translate(-372.366 -101.221)"/><path class="c" d="M375.056,100.62a2.037,2.037,0,1,1-2.833-.519A2.036,2.036,0,0,1,375.056,100.62Z" transform="translate(-371.343 -99.74)"/><path class="h" d="M375.056,100.62a2.037,2.037,0,1,1-2.833-.519A2.036,2.036,0,0,1,375.056,100.62Z" transform="translate(-371.343 -99.74)"/></g><g class="k" transform="translate(11.489 25.919)"><path d="M379.177,119.946c.16.074.181.448.025,1.06a8.447,8.447,0,0,1-1.128,2.4,12.423,12.423,0,0,1-1.127,1.467,13.521,13.521,0,0,1-12.88,4.137,12.409,12.409,0,0,1-1.771-.535,8.463,8.463,0,0,1-2.315-1.294c-.484-.407-.684-.723-.6-.876.189-.336,1.432.092,3.4.385.49.077,1.029.131,1.6.175.575.028,1.186.053,1.826.021a14.819,14.819,0,0,0,7.757-2.492,18.251,18.251,0,0,0,1.473-1.08c.44-.369.846-.727,1.2-1.075C378.066,120.856,378.827,119.783,379.177,119.946Z" transform="translate(-359.366 -119.93)"/></g><g class="k" transform="translate(7.902 27.9)"><path d="M350.856,125.2a1.244,1.244,0,1,1-.289,1.78A1.276,1.276,0,0,1,350.856,125.2Z" transform="translate(-350.324 -124.922)"/></g></g><g transform="translate(133.747 76.205)"><path class="c" d="M286.04,112.7a2.4,2.4,0,0,0-.232-.915,3.605,3.605,0,0,1,.717-.7l-.165-.231a4.239,4.239,0,0,1-.911.382,2.4,2.4,0,0,0-.569-.478,1.612,1.612,0,0,1,.154-.646l-.259-.115a2.376,2.376,0,0,1-.358.545,2.423,2.423,0,0,0-.542-.121,3.528,3.528,0,0,1-.249-.978l-.283.026a4.171,4.171,0,0,1-.131.975,2.4,2.4,0,0,0-.675.225,1.737,1.737,0,0,1-.483-.465l-.231.166a2.314,2.314,0,0,1,.288.573,2.382,2.382,0,0,0-.432.452,3.74,3.74,0,0,1-.971-.27l-.118.262a4.006,4.006,0,0,1,.774.585,2.431,2.431,0,0,0-.153.784,1.7,1.7,0,0,1-.594.167l.031.286a2.347,2.347,0,0,1,.6.023,2.408,2.408,0,0,0,.193.617,4.393,4.393,0,0,1-.688.648l.167.234a3.8,3.8,0,0,1,.85-.361,2.393,2.393,0,0,0,.6.522,1.719,1.719,0,0,1-.155.593l.262.117a2.334,2.334,0,0,1,.321-.5,2.433,2.433,0,0,0,1.013.139,4.083,4.083,0,0,1,.453.866l.271-.1a3.71,3.71,0,0,1-.11-.9,2.3,2.3,0,0,0,.832-.5,1.755,1.755,0,0,1,.479.363l.208-.2a2.356,2.356,0,0,1-.364-.523,2.418,2.418,0,0,0,.412-.921,4.359,4.359,0,0,1,.948-.04l.027-.286A4.037,4.037,0,0,1,286.04,112.7Zm-3.869-1.8-.007.006Z" transform="translate(-280.43 -109.277)"/><g transform="translate(0 0)"><g class="e" transform="translate(1.743 1.291)"><path class="f" d="M287.85,114.381c-.125.014-.243-.2-.457-.455-.025-.033-.056-.063-.085-.1s-.063-.065-.094-.1a2.685,2.685,0,0,0-.22-.2,1.848,1.848,0,0,0-1.188-.417,2.7,2.7,0,0,0-.294.015c-.046.007-.092.012-.136.019s-.087.013-.127.023c-.326.064-.553.158-.642.069a.116.116,0,0,1-.027-.093.384.384,0,0,1,.047-.148,1.135,1.135,0,0,1,.362-.386,1.6,1.6,0,0,1,.151-.094c.054-.03.113-.057.174-.084a1.985,1.985,0,0,1,.9-.143,1.938,1.938,0,0,1,.986.346,1.988,1.988,0,0,1,.609.671c.031.06.06.117.083.175a1.624,1.624,0,0,1,.059.167,1.139,1.139,0,0,1,.041.527.38.38,0,0,1-.056.146A.117.117,0,0,1,287.85,114.381Z" transform="translate(-284.579 -112.287)"/></g><g transform="translate(0 1.68)"><path class="c" d="M280.445,113.271c.048.021.035.156-.029.3a.789.789,0,0,1-.071.131c-.049.071-.1.112-.131.1-.048-.021-.035-.157.029-.3S280.4,113.25,280.445,113.271Z" transform="translate(-280.186 -113.268)"/><path class="g" d="M280.606,113.941a.922.922,0,0,0,.112-.265c.049.019.106.042.163.063a.949.949,0,0,1-.219.23Z" transform="translate(-280.439 -113.514)"/><g transform="translate(0.026 1.832)"><path class="c" d="M280.316,117.887c.052-.006.109.117.129.277a.766.766,0,0,1,0,.149c-.006.086-.029.146-.063.15-.052.006-.109-.117-.129-.277S280.264,117.893,280.316,117.887Z" transform="translate(-280.251 -117.886)"/><path class="g" d="M280.695,118.457a.633.633,0,0,0-.038-.285c.054-.005.111-.013.171-.025a.914.914,0,0,1-.071.3Z" transform="translate(-280.496 -118.044)"/></g><g transform="translate(0.157 3.424)"><path class="c" d="M280.6,122c.042-.031.153.049.248.178a.8.8,0,0,1,.077.127c.037.078.046.142.019.162s-.153-.049-.248-.178S280.554,122.033,280.6,122Z" transform="translate(-280.58 -121.957)"/><path class="g" d="M281.164,122.237a.92.92,0,0,0-.173-.23c.042-.033.09-.07.137-.11a.941.941,0,0,1,.089.305Z" transform="translate(-280.828 -121.898)"/></g><g transform="translate(1.625 4.361)"><path class="c" d="M284.283,124.667c.021-.048.156-.035.3.028a.8.8,0,0,1,.131.071c.072.049.112.1.1.131-.021.048-.156.035-.3-.028S284.262,124.714,284.283,124.667Z" transform="translate(-284.28 -124.487)"/><path class="g" d="M284.953,124.529a.635.635,0,0,0-.265-.11c.022-.049.044-.1.065-.161a.923.923,0,0,1,.227.215Z" transform="translate(-284.526 -124.258)"/></g></g><g transform="translate(3.73 3.575)"><g transform="translate(0 3.067)"><path class="c" d="M289.589,126.174c-.018-.049.089-.133.24-.188a.8.8,0,0,1,.144-.039c.085-.014.149-.006.161.027.018.049-.089.133-.24.188S289.607,126.222,289.589,126.174Z" transform="translate(-289.587 -125.873)"/><path class="g" d="M290.016,125.847a.928.928,0,0,0-.269.1c-.02-.049-.043-.106-.067-.162a.952.952,0,0,1,.318,0Z" transform="translate(-289.643 -125.772)"/></g><g transform="translate(1.451 1.853)"><path class="c" d="M293.434,123.129c-.037-.037.027-.158.14-.271a.811.811,0,0,1,.115-.095c.072-.048.134-.066.158-.042s-.027.158-.141.271S293.471,123.166,293.434,123.129Z" transform="translate(-293.353 -122.711)"/><path class="g" d="M293.572,122.791a.637.637,0,0,0-.2.2c-.036-.039-.079-.079-.124-.121a.913.913,0,0,1,.284-.129Z" transform="translate(-293.245 -122.731)"/></g><g transform="translate(2.604)"><path class="c" d="M296.651,118.62c-.052,0-.083-.137-.071-.3a.833.833,0,0,1,.025-.147c.023-.083.058-.138.092-.135.052,0,.084.137.071.3S296.7,118.624,296.651,118.62Z" transform="translate(-296.408 -118.042)"/><path class="g" d="M296.344,118.4a.915.915,0,0,0-.02.286l-.175-.007a.946.946,0,0,1,.133-.288Z" transform="translate(-296.149 -118.252)"/></g></g><g transform="translate(1.905 4.13)"><path class="g" d="M285.9,119.9c.106.154.109.337.005.409s-.274,0-.381-.149-.109-.337-.005-.409S285.789,119.742,285.9,119.9Z" transform="translate(-285.26 -119.609)"/><path class="c" d="M285.443,119.621c.106.154.109.337,0,.409s-.274,0-.381-.15-.108-.337,0-.409S285.337,119.466,285.443,119.621Z" transform="translate(-284.987 -119.442)"/><path class="h" d="M285.443,119.621c.106.154.109.337,0,.409s-.274,0-.381-.15-.108-.337,0-.409S285.337,119.466,285.443,119.621Z" transform="translate(-284.987 -119.442)"/></g><g transform="translate(1.121 2.563)"><path class="g" d="M283.528,115.932c.086-.166.247-.254.359-.2s.132.24.046.406-.247.254-.359.2S283.441,116.1,283.528,115.932Z" transform="translate(-283.291 -115.629)"/><path class="c" d="M283.065,115.706c.086-.166.247-.254.359-.2s.132.24.046.406-.247.254-.359.2S282.978,115.873,283.065,115.706Z" transform="translate(-283.011 -115.493)"/><path class="h" d="M283.065,115.706c.086-.166.247-.254.359-.2s.132.24.046.406-.247.254-.359.2S282.978,115.873,283.065,115.706Z" transform="translate(-283.011 -115.493)"/></g><g transform="translate(3.198 4.681)"><path class="g" d="M288.823,121.173a.223.223,0,1,1-.31-.057A.223.223,0,0,1,288.823,121.173Z" transform="translate(-288.348 -120.979)"/><path class="c" d="M288.651,120.925a.223.223,0,1,1-.311-.057A.223.223,0,0,1,288.651,120.925Z" transform="translate(-288.244 -120.829)"/><path class="i" d="M288.651,120.925a.223.223,0,1,1-.311-.057A.223.223,0,0,1,288.651,120.925Z" transform="translate(-288.244 -120.829)"/></g><g transform="translate(3.219 1.942)"><path class="g" d="M288.844,114.606a.274.274,0,1,1-.234-.31A.275.275,0,0,1,288.844,114.606Z" transform="translate(-288.298 -114.148)"/><path class="c" d="M288.9,114.24a.275.275,0,1,1-.234-.31A.275.275,0,0,1,288.9,114.24Z" transform="translate(-288.329 -113.927)"/><path class="i" d="M288.9,114.24a.275.275,0,1,1-.234-.31A.275.275,0,0,1,288.9,114.24Z" transform="translate(-288.329 -113.927)"/></g><g transform="translate(4.385 4.268)"><path class="g" d="M291.661,120.042a.164.164,0,1,1-.227-.042A.163.163,0,0,1,291.661,120.042Z" transform="translate(-291.312 -119.899)"/><path class="c" d="M291.535,119.86a.164.164,0,1,1-.228-.042A.164.164,0,0,1,291.535,119.86Z" transform="translate(-291.237 -119.789)"/><path class="i" d="M291.535,119.86a.164.164,0,1,1-.228-.042A.164.164,0,0,1,291.535,119.86Z" transform="translate(-291.237 -119.789)"/></g><g transform="translate(1.22)"><g transform="translate(4.652 1.397)"><path class="c" d="M295.372,113.023c-.041.03-.151-.048-.245-.176a.829.829,0,0,1-.076-.125c-.037-.077-.046-.14-.018-.16s.151.048.244.176S295.413,112.992,295.372,113.023Z" transform="translate(-295.004 -112.554)"/><path class="g" d="M295.037,113a.908.908,0,0,0,.171.227c-.042.032-.088.069-.135.108a.938.938,0,0,1-.088-.3Z" transform="translate(-294.984 -112.825)"/></g><g transform="translate(3.014 0.556)"><path class="c" d="M291.384,110.689c-.021.047-.155.035-.3-.028a.779.779,0,0,1-.13-.07c-.071-.048-.11-.1-.1-.129.02-.047.154-.035.3.028S291.4,110.642,291.384,110.689Z" transform="translate(-290.854 -110.434)"/><path class="g" d="M291.091,110.849a.629.629,0,0,0,.262.109c-.022.048-.043.1-.064.158a.9.9,0,0,1-.224-.212Z" transform="translate(-290.981 -110.684)"/></g><g transform="translate(1.534)"><path class="c" d="M287.7,109.1c.006.051-.118.106-.275.123a.8.8,0,0,1-.147,0c-.085-.008-.144-.031-.148-.065-.006-.051.117-.106.275-.123S287.691,109.049,287.7,109.1Z" transform="translate(-287.127 -109.033)"/><path class="g" d="M287.531,109.471a.911.911,0,0,0,.282-.033c.007.052.016.111.025.171a.934.934,0,0,1-.3-.076Z" transform="translate(-287.371 -109.277)"/></g><g transform="translate(0 0.76)"><path class="c" d="M283.727,110.965c.031.041-.048.151-.175.245a.778.778,0,0,1-.125.077c-.077.037-.14.046-.16.019s.048-.151.175-.245S283.7,110.924,283.727,110.965Z" transform="translate(-283.259 -110.949)"/><path class="g" d="M283.708,111.526a.627.627,0,0,0,.227-.171c.03.044.065.089.1.135a.906.906,0,0,1-.3.087Z" transform="translate(-283.53 -111.194)"/></g></g><g transform="translate(4.44 3.153)"><path class="g" d="M291.833,117.622c.022.186-.062.349-.187.363s-.244-.124-.266-.31.062-.349.187-.363S291.811,117.436,291.833,117.622Z" transform="translate(-291.376 -117.179)"/><path class="c" d="M291.9,117.291c.022.186-.062.349-.187.364s-.244-.124-.266-.31.061-.349.187-.363S291.882,117.106,291.9,117.291Z" transform="translate(-291.419 -116.98)"/><path class="i" d="M291.9,117.291c.022.186-.062.349-.187.364s-.244-.124-.266-.31.061-.349.187-.363S291.882,117.106,291.9,117.291Z" transform="translate(-291.419 -116.98)"/></g><g transform="translate(2.705 2.982)"><path class="g" d="M287.9,117.1a.339.339,0,1,1-.472-.087A.339.339,0,0,1,287.9,117.1Z" transform="translate(-287.173 -116.796)"/><path class="c" d="M287.621,116.7a.339.339,0,1,1-.472-.087A.339.339,0,0,1,287.621,116.7Z" transform="translate(-287.003 -116.549)"/><path class="h" d="M287.621,116.7a.339.339,0,1,1-.472-.087A.339.339,0,0,1,287.621,116.7Z" transform="translate(-287.003 -116.549)"/></g><g class="e" transform="translate(1.913 4.316)"><path d="M288.307,119.914c.027.013.03.075,0,.177a1.409,1.409,0,0,1-.188.4,2.065,2.065,0,0,1-.188.244,2.329,2.329,0,0,1-.259.244,2.239,2.239,0,0,1-1.534.492,2.248,2.248,0,0,1-.353-.047,2.093,2.093,0,0,1-.295-.089,1.4,1.4,0,0,1-.385-.215c-.081-.068-.114-.121-.1-.146.032-.056.238.015.566.064.082.013.171.021.267.029s.2.009.3,0a2.468,2.468,0,0,0,1.292-.415c.09-.058.17-.121.245-.18s.141-.121.2-.179C288.122,120.065,288.249,119.887,288.307,119.914Z" transform="translate(-285.008 -119.911)"/></g><g class="e" transform="translate(1.316 4.646)"><path d="M283.59,120.789a.207.207,0,1,1-.048.3A.213.213,0,0,1,283.59,120.789Z" transform="translate(-283.502 -120.743)"/></g></g></g></g></svg>